<mxfile host="app.diagrams.net" agent="Mozilla/5.0 (Windows NT 10.0; Win64; x64) AppleWebKit/537.36 (KHTML, like Gecko) Chrome/131.0.0.0 Safari/537.36" version="25.0.3">
  <diagram name="Page-1" id="YLspwMIPm_NOD1BoJXcY">
    <mxGraphModel dx="2351" dy="804" grid="1" gridSize="10" guides="1" tooltips="1" connect="1" arrows="1" fold="1" page="1" pageScale="1" pageWidth="850" pageHeight="1100" math="0" shadow="0">
      <root>
        <mxCell id="0" />
        <mxCell id="1" parent="0" />
        <mxCell id="K6hKWRhBZdii8BDBdFps-9" style="edgeStyle=orthogonalEdgeStyle;rounded=0;orthogonalLoop=1;jettySize=auto;html=1;entryX=0;entryY=0.5;entryDx=0;entryDy=0;" parent="1" source="K6hKWRhBZdii8BDBdFps-4" target="K6hKWRhBZdii8BDBdFps-8" edge="1">
          <mxGeometry relative="1" as="geometry" />
        </mxCell>
        <mxCell id="K6hKWRhBZdii8BDBdFps-4" value="c_addr_i" style="shape=offPageConnector;whiteSpace=wrap;html=1;direction=north;spacingLeft=-100;" parent="1" vertex="1">
          <mxGeometry x="20" y="150" width="40" height="30" as="geometry" />
        </mxCell>
        <mxCell id="K6hKWRhBZdii8BDBdFps-13" style="edgeStyle=orthogonalEdgeStyle;rounded=0;orthogonalLoop=1;jettySize=auto;html=1;entryX=0;entryY=0.75;entryDx=0;entryDy=0;exitX=0.5;exitY=1;exitDx=0;exitDy=0;" parent="1" source="K6hKWRhBZdii8BDBdFps-5" target="K6hKWRhBZdii8BDBdFps-11" edge="1">
          <mxGeometry relative="1" as="geometry">
            <mxPoint x="65" y="215" as="sourcePoint" />
            <Array as="points">
              <mxPoint x="150" y="215" />
              <mxPoint x="150" y="195" />
            </Array>
          </mxGeometry>
        </mxCell>
        <mxCell id="K6hKWRhBZdii8BDBdFps-5" value="n_addr_i" style="shape=offPageConnector;whiteSpace=wrap;html=1;direction=north;spacingLeft=-100;" parent="1" vertex="1">
          <mxGeometry x="20" y="200" width="40" height="30" as="geometry" />
        </mxCell>
        <mxCell id="K6hKWRhBZdii8BDBdFps-6" value="is_jump" style="shape=offPageConnector;whiteSpace=wrap;html=1;direction=north;spacingLeft=-100;" parent="1" vertex="1">
          <mxGeometry x="20" y="100" width="40" height="30" as="geometry" />
        </mxCell>
        <mxCell id="K6hKWRhBZdii8BDBdFps-12" style="edgeStyle=orthogonalEdgeStyle;rounded=0;orthogonalLoop=1;jettySize=auto;html=1;entryX=0;entryY=0.25;entryDx=0;entryDy=0;" parent="1" target="K6hKWRhBZdii8BDBdFps-11" edge="1">
          <mxGeometry relative="1" as="geometry">
            <mxPoint x="105" y="165" as="sourcePoint" />
            <mxPoint x="165" y="200" as="targetPoint" />
            <Array as="points">
              <mxPoint x="150" y="165" />
              <mxPoint x="150" y="185" />
            </Array>
          </mxGeometry>
        </mxCell>
        <mxCell id="K6hKWRhBZdii8BDBdFps-8" value="+4" style="rounded=0;whiteSpace=wrap;html=1;" parent="1" vertex="1">
          <mxGeometry x="120" y="155" width="20" height="20" as="geometry" />
        </mxCell>
        <mxCell id="K6hKWRhBZdii8BDBdFps-11" value="=" style="rounded=0;whiteSpace=wrap;html=1;" parent="1" vertex="1">
          <mxGeometry x="160" y="180" width="20" height="20" as="geometry" />
        </mxCell>
        <mxCell id="K6hKWRhBZdii8BDBdFps-27" value="" style="group" parent="1" vertex="1" connectable="0">
          <mxGeometry x="-70" y="310" width="130" height="70" as="geometry" />
        </mxCell>
        <mxCell id="K6hKWRhBZdii8BDBdFps-25" value="&amp;nbsp; &amp;nbsp; &amp;nbsp; &amp;nbsp; &amp;nbsp; &amp;nbsp; &amp;nbsp; &amp;nbsp; &amp;nbsp; WD&amp;nbsp; &amp;nbsp; &amp;nbsp; &amp;nbsp; RD&lt;div&gt;&lt;div style=&quot;text-align: left;&quot;&gt;&lt;span style=&quot;background-color: initial;&quot;&gt;wr_en&lt;/span&gt;&lt;/div&gt;&lt;div&gt;&lt;div&gt;&lt;div&gt;&lt;br&gt;&lt;/div&gt;&lt;/div&gt;&lt;/div&gt;&lt;/div&gt;" style="rounded=0;whiteSpace=wrap;html=1;spacingTop=0;spacingBottom=24;" parent="K6hKWRhBZdii8BDBdFps-27" vertex="1">
          <mxGeometry width="130" height="70" as="geometry" />
        </mxCell>
        <mxCell id="K6hKWRhBZdii8BDBdFps-26" value="" style="triangle;whiteSpace=wrap;html=1;" parent="K6hKWRhBZdii8BDBdFps-27" vertex="1">
          <mxGeometry y="50" width="10" height="10" as="geometry" />
        </mxCell>
        <mxCell id="K6hKWRhBZdii8BDBdFps-28" value="c_addr_buf_1" style="text;html=1;align=center;verticalAlign=middle;whiteSpace=wrap;rounded=0;" parent="K6hKWRhBZdii8BDBdFps-27" vertex="1">
          <mxGeometry x="25" y="20" width="80" height="30" as="geometry" />
        </mxCell>
        <mxCell id="K6hKWRhBZdii8BDBdFps-29" value="" style="group" parent="1" vertex="1" connectable="0">
          <mxGeometry x="430" y="310" width="130" height="70" as="geometry" />
        </mxCell>
        <mxCell id="K6hKWRhBZdii8BDBdFps-30" value="&amp;nbsp; &amp;nbsp; &amp;nbsp; &amp;nbsp; &amp;nbsp; &amp;nbsp; &amp;nbsp; &amp;nbsp; &amp;nbsp; WD&amp;nbsp; &amp;nbsp; &amp;nbsp; &amp;nbsp; RD&lt;div&gt;&lt;div style=&quot;text-align: left;&quot;&gt;&lt;span style=&quot;background-color: initial;&quot;&gt;wr_en&lt;/span&gt;&lt;/div&gt;&lt;div&gt;&lt;div&gt;&lt;div&gt;&lt;br&gt;&lt;/div&gt;&lt;/div&gt;&lt;/div&gt;&lt;/div&gt;" style="rounded=0;whiteSpace=wrap;html=1;spacingTop=0;spacingBottom=24;" parent="K6hKWRhBZdii8BDBdFps-29" vertex="1">
          <mxGeometry width="130" height="70" as="geometry" />
        </mxCell>
        <mxCell id="K6hKWRhBZdii8BDBdFps-31" value="" style="triangle;whiteSpace=wrap;html=1;" parent="K6hKWRhBZdii8BDBdFps-29" vertex="1">
          <mxGeometry y="50" width="10" height="10" as="geometry" />
        </mxCell>
        <mxCell id="K6hKWRhBZdii8BDBdFps-32" value="n_addr_buf_1" style="text;html=1;align=center;verticalAlign=middle;whiteSpace=wrap;rounded=0;" parent="K6hKWRhBZdii8BDBdFps-29" vertex="1">
          <mxGeometry x="25" y="20" width="80" height="30" as="geometry" />
        </mxCell>
        <mxCell id="K6hKWRhBZdii8BDBdFps-33" value="" style="group" parent="1" vertex="1" connectable="0">
          <mxGeometry x="-290" y="310" width="140" height="90" as="geometry" />
        </mxCell>
        <mxCell id="K6hKWRhBZdii8BDBdFps-34" value="&amp;nbsp; &amp;nbsp; &amp;nbsp; &amp;nbsp; &amp;nbsp; &amp;nbsp; &amp;nbsp; &amp;nbsp; &amp;nbsp; WD&amp;nbsp; &amp;nbsp; &amp;nbsp; &amp;nbsp; RD&lt;div&gt;&lt;div style=&quot;text-align: left;&quot;&gt;&lt;span style=&quot;background-color: initial;&quot;&gt;wr_en&lt;/span&gt;&lt;/div&gt;&lt;div&gt;&lt;div&gt;&lt;div&gt;&lt;br&gt;&lt;/div&gt;&lt;/div&gt;&lt;/div&gt;&lt;/div&gt;" style="rounded=0;whiteSpace=wrap;html=1;spacingTop=0;spacingBottom=24;" parent="K6hKWRhBZdii8BDBdFps-33" vertex="1">
          <mxGeometry width="130" height="70" as="geometry" />
        </mxCell>
        <mxCell id="K6hKWRhBZdii8BDBdFps-35" value="" style="triangle;whiteSpace=wrap;html=1;" parent="K6hKWRhBZdii8BDBdFps-33" vertex="1">
          <mxGeometry y="50" width="10" height="10" as="geometry" />
        </mxCell>
        <mxCell id="K6hKWRhBZdii8BDBdFps-36" value="valid_buf_1" style="text;html=1;align=center;verticalAlign=middle;whiteSpace=wrap;rounded=0;" parent="K6hKWRhBZdii8BDBdFps-33" vertex="1">
          <mxGeometry x="25" y="20" width="80" height="30" as="geometry" />
        </mxCell>
        <mxCell id="K6hKWRhBZdii8BDBdFps-122" style="edgeStyle=orthogonalEdgeStyle;rounded=0;orthogonalLoop=1;jettySize=auto;html=1;entryX=0;entryY=0.25;entryDx=0;entryDy=0;entryPerimeter=0;exitX=1;exitY=0.5;exitDx=0;exitDy=0;exitPerimeter=0;fillColor=#d5e8d4;strokeColor=#82b366;" parent="1" source="K6hKWRhBZdii8BDBdFps-37" target="K6hKWRhBZdii8BDBdFps-124" edge="1">
          <mxGeometry relative="1" as="geometry">
            <mxPoint x="10" y="834.97" as="targetPoint" />
            <mxPoint x="320" y="434.97" as="sourcePoint" />
            <Array as="points">
              <mxPoint x="330" y="180" />
              <mxPoint x="330" y="835" />
            </Array>
          </mxGeometry>
        </mxCell>
        <mxCell id="K6hKWRhBZdii8BDBdFps-37" value="" style="verticalLabelPosition=bottom;shadow=0;dashed=0;align=center;html=1;verticalAlign=top;shape=mxgraph.electrical.logic_gates.logic_gate;operation=and;" parent="1" vertex="1">
          <mxGeometry x="260" y="160" width="60" height="40" as="geometry" />
        </mxCell>
        <mxCell id="K6hKWRhBZdii8BDBdFps-38" value="" style="verticalLabelPosition=bottom;shadow=0;dashed=0;align=center;html=1;verticalAlign=top;shape=mxgraph.electrical.logic_gates.inverter_2;fillColor=#dae8fc;strokeColor=#6c8ebf;" parent="1" vertex="1">
          <mxGeometry x="215" y="180" width="30" height="20" as="geometry" />
        </mxCell>
        <mxCell id="K6hKWRhBZdii8BDBdFps-39" value="" style="verticalLabelPosition=bottom;shadow=0;dashed=0;align=center;html=1;verticalAlign=top;shape=mxgraph.electrical.logic_gates.logic_gate;operation=and;" parent="1" vertex="1">
          <mxGeometry x="260" y="105" width="60" height="40" as="geometry" />
        </mxCell>
        <mxCell id="K6hKWRhBZdii8BDBdFps-40" style="edgeStyle=orthogonalEdgeStyle;rounded=0;orthogonalLoop=1;jettySize=auto;html=1;entryX=0;entryY=0.25;entryDx=0;entryDy=0;entryPerimeter=0;" parent="1" source="K6hKWRhBZdii8BDBdFps-6" target="K6hKWRhBZdii8BDBdFps-39" edge="1">
          <mxGeometry relative="1" as="geometry" />
        </mxCell>
        <mxCell id="K6hKWRhBZdii8BDBdFps-48" style="edgeStyle=orthogonalEdgeStyle;rounded=0;orthogonalLoop=1;jettySize=auto;html=1;entryX=0;entryY=0.5;entryDx=0;entryDy=0;entryPerimeter=0;fillColor=#dae8fc;strokeColor=#6c8ebf;" parent="1" source="K6hKWRhBZdii8BDBdFps-11" target="K6hKWRhBZdii8BDBdFps-38" edge="1">
          <mxGeometry relative="1" as="geometry">
            <mxPoint x="220" y="230" as="targetPoint" />
          </mxGeometry>
        </mxCell>
        <mxCell id="K6hKWRhBZdii8BDBdFps-49" style="edgeStyle=orthogonalEdgeStyle;rounded=0;orthogonalLoop=1;jettySize=auto;html=1;entryX=0;entryY=0.75;entryDx=0;entryDy=0;entryPerimeter=0;fillColor=#dae8fc;strokeColor=#6c8ebf;" parent="1" source="K6hKWRhBZdii8BDBdFps-38" target="K6hKWRhBZdii8BDBdFps-37" edge="1">
          <mxGeometry relative="1" as="geometry" />
        </mxCell>
        <mxCell id="K6hKWRhBZdii8BDBdFps-118" style="edgeStyle=orthogonalEdgeStyle;rounded=0;orthogonalLoop=1;jettySize=auto;html=1;entryX=0;entryY=0.25;entryDx=0;entryDy=0;entryPerimeter=0;exitX=1;exitY=0.5;exitDx=0;exitDy=0;fillColor=#f8cecc;strokeColor=#b85450;" parent="1" source="K6hKWRhBZdii8BDBdFps-52" target="K6hKWRhBZdii8BDBdFps-119" edge="1">
          <mxGeometry relative="1" as="geometry">
            <mxPoint x="40" y="804.97" as="targetPoint" />
            <mxPoint x="120" y="594.97" as="sourcePoint" />
            <Array as="points">
              <mxPoint x="140" y="340" />
              <mxPoint x="140" y="805" />
            </Array>
          </mxGeometry>
        </mxCell>
        <mxCell id="K6hKWRhBZdii8BDBdFps-52" value="=" style="rounded=0;whiteSpace=wrap;html=1;" parent="1" vertex="1">
          <mxGeometry x="100" y="330" width="20" height="20" as="geometry" />
        </mxCell>
        <mxCell id="O-KffDvgN3JifZ1gRdpQ-68" style="edgeStyle=orthogonalEdgeStyle;rounded=0;orthogonalLoop=1;jettySize=auto;html=1;entryX=1;entryY=0.25;entryDx=0;entryDy=0;" edge="1" parent="1" source="K6hKWRhBZdii8BDBdFps-57" target="09FnoaacUL5NaG-trUYr-19">
          <mxGeometry relative="1" as="geometry">
            <Array as="points">
              <mxPoint x="230" y="80" />
              <mxPoint x="375" y="80" />
              <mxPoint x="375" y="160" />
              <mxPoint x="530" y="160" />
            </Array>
          </mxGeometry>
        </mxCell>
        <mxCell id="K6hKWRhBZdii8BDBdFps-57" value="" style="shape=waypoint;sketch=0;size=6;pointerEvents=1;points=[];fillColor=none;resizable=0;rotatable=0;perimeter=centerPerimeter;snapToPoint=1;" parent="1" vertex="1">
          <mxGeometry x="220" y="105" width="20" height="20" as="geometry" />
        </mxCell>
        <mxCell id="K6hKWRhBZdii8BDBdFps-58" style="edgeStyle=orthogonalEdgeStyle;rounded=0;orthogonalLoop=1;jettySize=auto;html=1;entryX=0;entryY=0.25;entryDx=0;entryDy=0;entryPerimeter=0;" parent="1" source="K6hKWRhBZdii8BDBdFps-57" target="K6hKWRhBZdii8BDBdFps-37" edge="1">
          <mxGeometry relative="1" as="geometry">
            <Array as="points">
              <mxPoint x="230" y="170" />
            </Array>
          </mxGeometry>
        </mxCell>
        <mxCell id="K6hKWRhBZdii8BDBdFps-60" value="" style="shape=waypoint;sketch=0;size=6;pointerEvents=1;points=[];fillColor=#dae8fc;resizable=0;rotatable=0;perimeter=centerPerimeter;snapToPoint=1;strokeColor=#6c8ebf;" parent="1" vertex="1">
          <mxGeometry x="180" y="180" width="20" height="20" as="geometry" />
        </mxCell>
        <mxCell id="K6hKWRhBZdii8BDBdFps-61" style="edgeStyle=orthogonalEdgeStyle;rounded=0;orthogonalLoop=1;jettySize=auto;html=1;entryX=0;entryY=0.75;entryDx=0;entryDy=0;entryPerimeter=0;exitX=0.55;exitY=-0.033;exitDx=0;exitDy=0;exitPerimeter=0;fillColor=#dae8fc;strokeColor=#6c8ebf;" parent="1" source="K6hKWRhBZdii8BDBdFps-60" target="K6hKWRhBZdii8BDBdFps-39" edge="1">
          <mxGeometry relative="1" as="geometry">
            <mxPoint x="190" y="170" as="sourcePoint" />
            <Array as="points">
              <mxPoint x="190" y="135" />
            </Array>
          </mxGeometry>
        </mxCell>
        <mxCell id="K6hKWRhBZdii8BDBdFps-65" style="edgeStyle=orthogonalEdgeStyle;rounded=0;orthogonalLoop=1;jettySize=auto;html=1;entryX=0;entryY=0.25;entryDx=0;entryDy=0;" parent="1" source="K6hKWRhBZdii8BDBdFps-62" target="K6hKWRhBZdii8BDBdFps-52" edge="1">
          <mxGeometry relative="1" as="geometry">
            <Array as="points">
              <mxPoint x="80" y="335" />
            </Array>
          </mxGeometry>
        </mxCell>
        <mxCell id="K6hKWRhBZdii8BDBdFps-62" value="" style="shape=waypoint;sketch=0;size=6;pointerEvents=1;points=[];fillColor=none;resizable=0;rotatable=0;perimeter=centerPerimeter;snapToPoint=1;" parent="1" vertex="1">
          <mxGeometry x="70" y="155" width="20" height="20" as="geometry" />
        </mxCell>
        <mxCell id="K6hKWRhBZdii8BDBdFps-66" style="edgeStyle=orthogonalEdgeStyle;rounded=0;orthogonalLoop=1;jettySize=auto;html=1;exitX=0.997;exitY=0.131;exitDx=0;exitDy=0;entryX=0;entryY=0.75;entryDx=0;entryDy=0;exitPerimeter=0;" parent="1" source="K6hKWRhBZdii8BDBdFps-25" target="K6hKWRhBZdii8BDBdFps-52" edge="1">
          <mxGeometry relative="1" as="geometry">
            <Array as="points">
              <mxPoint x="70" y="319" />
              <mxPoint x="70" y="345" />
            </Array>
          </mxGeometry>
        </mxCell>
        <mxCell id="K6hKWRhBZdii8BDBdFps-67" value="" style="group" parent="1" vertex="1" connectable="0">
          <mxGeometry x="-70" y="420" width="130" height="70" as="geometry" />
        </mxCell>
        <mxCell id="K6hKWRhBZdii8BDBdFps-68" value="&amp;nbsp; &amp;nbsp; &amp;nbsp; &amp;nbsp; &amp;nbsp; &amp;nbsp; &amp;nbsp; &amp;nbsp; &amp;nbsp; WD&amp;nbsp; &amp;nbsp; &amp;nbsp; &amp;nbsp; RD&lt;div&gt;&lt;div style=&quot;text-align: left;&quot;&gt;&lt;span style=&quot;background-color: initial;&quot;&gt;wr_en&lt;/span&gt;&lt;/div&gt;&lt;div&gt;&lt;div&gt;&lt;div&gt;&lt;br&gt;&lt;/div&gt;&lt;/div&gt;&lt;/div&gt;&lt;/div&gt;" style="rounded=0;whiteSpace=wrap;html=1;spacingTop=0;spacingBottom=24;" parent="K6hKWRhBZdii8BDBdFps-67" vertex="1">
          <mxGeometry width="130" height="70" as="geometry" />
        </mxCell>
        <mxCell id="K6hKWRhBZdii8BDBdFps-69" value="" style="triangle;whiteSpace=wrap;html=1;" parent="K6hKWRhBZdii8BDBdFps-67" vertex="1">
          <mxGeometry y="50" width="10" height="10" as="geometry" />
        </mxCell>
        <mxCell id="K6hKWRhBZdii8BDBdFps-70" value="c_addr_buf_2" style="text;html=1;align=center;verticalAlign=middle;whiteSpace=wrap;rounded=0;" parent="K6hKWRhBZdii8BDBdFps-67" vertex="1">
          <mxGeometry x="25" y="20" width="80" height="30" as="geometry" />
        </mxCell>
        <mxCell id="K6hKWRhBZdii8BDBdFps-117" style="edgeStyle=orthogonalEdgeStyle;rounded=0;orthogonalLoop=1;jettySize=auto;html=1;entryX=0;entryY=0.75;entryDx=0;entryDy=0;entryPerimeter=0;exitX=1;exitY=0.5;exitDx=0;exitDy=0;fillColor=#f8cecc;strokeColor=#b85450;" parent="1" source="K6hKWRhBZdii8BDBdFps-71" target="K6hKWRhBZdii8BDBdFps-119" edge="1">
          <mxGeometry relative="1" as="geometry">
            <mxPoint x="40" y="784.97" as="targetPoint" />
            <mxPoint x="120" y="704.97" as="sourcePoint" />
            <Array as="points">
              <mxPoint x="130" y="450" />
              <mxPoint x="130" y="785" />
            </Array>
          </mxGeometry>
        </mxCell>
        <mxCell id="K6hKWRhBZdii8BDBdFps-71" value="=" style="rounded=0;whiteSpace=wrap;html=1;" parent="1" vertex="1">
          <mxGeometry x="100" y="440" width="20" height="20" as="geometry" />
        </mxCell>
        <mxCell id="K6hKWRhBZdii8BDBdFps-73" style="edgeStyle=orthogonalEdgeStyle;rounded=0;orthogonalLoop=1;jettySize=auto;html=1;entryX=0;entryY=0.25;entryDx=0;entryDy=0;" parent="1" source="K6hKWRhBZdii8BDBdFps-72" target="K6hKWRhBZdii8BDBdFps-71" edge="1">
          <mxGeometry relative="1" as="geometry">
            <Array as="points">
              <mxPoint x="80" y="445" />
            </Array>
          </mxGeometry>
        </mxCell>
        <mxCell id="K6hKWRhBZdii8BDBdFps-72" value="" style="shape=waypoint;sketch=0;size=6;pointerEvents=1;points=[];fillColor=none;resizable=0;rotatable=0;perimeter=centerPerimeter;snapToPoint=1;" parent="1" vertex="1">
          <mxGeometry x="70" y="324" width="20" height="20" as="geometry" />
        </mxCell>
        <mxCell id="K6hKWRhBZdii8BDBdFps-74" style="edgeStyle=orthogonalEdgeStyle;rounded=0;orthogonalLoop=1;jettySize=auto;html=1;entryX=0;entryY=0.75;entryDx=0;entryDy=0;" parent="1" target="K6hKWRhBZdii8BDBdFps-71" edge="1">
          <mxGeometry relative="1" as="geometry">
            <mxPoint x="60" y="430" as="sourcePoint" />
            <Array as="points">
              <mxPoint x="60" y="430" />
              <mxPoint x="70" y="430" />
              <mxPoint x="70" y="455" />
            </Array>
          </mxGeometry>
        </mxCell>
        <mxCell id="K6hKWRhBZdii8BDBdFps-76" value="" style="group" parent="1" vertex="1" connectable="0">
          <mxGeometry x="-290" y="420" width="130" height="70" as="geometry" />
        </mxCell>
        <mxCell id="K6hKWRhBZdii8BDBdFps-77" value="&amp;nbsp; &amp;nbsp; &amp;nbsp; &amp;nbsp; &amp;nbsp; &amp;nbsp; &amp;nbsp; &amp;nbsp; &amp;nbsp; WD&amp;nbsp; &amp;nbsp; &amp;nbsp; &amp;nbsp; RD&lt;div&gt;&lt;div style=&quot;text-align: left;&quot;&gt;&lt;span style=&quot;background-color: initial;&quot;&gt;wr_en&lt;/span&gt;&lt;/div&gt;&lt;div&gt;&lt;div&gt;&lt;div&gt;&lt;br&gt;&lt;/div&gt;&lt;/div&gt;&lt;/div&gt;&lt;/div&gt;" style="rounded=0;whiteSpace=wrap;html=1;spacingTop=0;spacingBottom=24;" parent="K6hKWRhBZdii8BDBdFps-76" vertex="1">
          <mxGeometry width="130" height="70" as="geometry" />
        </mxCell>
        <mxCell id="K6hKWRhBZdii8BDBdFps-78" value="" style="triangle;whiteSpace=wrap;html=1;" parent="K6hKWRhBZdii8BDBdFps-76" vertex="1">
          <mxGeometry y="50" width="10" height="10" as="geometry" />
        </mxCell>
        <mxCell id="K6hKWRhBZdii8BDBdFps-79" value="valid_buf_2" style="text;html=1;align=center;verticalAlign=middle;whiteSpace=wrap;rounded=0;" parent="K6hKWRhBZdii8BDBdFps-76" vertex="1">
          <mxGeometry x="25" y="20" width="80" height="30" as="geometry" />
        </mxCell>
        <mxCell id="K6hKWRhBZdii8BDBdFps-85" style="edgeStyle=orthogonalEdgeStyle;rounded=0;orthogonalLoop=1;jettySize=auto;html=1;entryX=0.5;entryY=0;entryDx=0;entryDy=0;" parent="1" source="K6hKWRhBZdii8BDBdFps-84" target="K6hKWRhBZdii8BDBdFps-25" edge="1">
          <mxGeometry relative="1" as="geometry" />
        </mxCell>
        <mxCell id="K6hKWRhBZdii8BDBdFps-84" value="" style="shape=waypoint;sketch=0;size=6;pointerEvents=1;points=[];fillColor=none;resizable=0;rotatable=0;perimeter=centerPerimeter;snapToPoint=1;" parent="1" vertex="1">
          <mxGeometry x="70" y="280" width="20" height="20" as="geometry" />
        </mxCell>
        <mxCell id="K6hKWRhBZdii8BDBdFps-87" style="edgeStyle=orthogonalEdgeStyle;rounded=0;orthogonalLoop=1;jettySize=auto;html=1;entryX=0.5;entryY=0;entryDx=0;entryDy=0;" parent="1" source="K6hKWRhBZdii8BDBdFps-86" target="K6hKWRhBZdii8BDBdFps-68" edge="1">
          <mxGeometry relative="1" as="geometry">
            <Array as="points">
              <mxPoint x="80" y="400" />
              <mxPoint x="-5" y="400" />
            </Array>
          </mxGeometry>
        </mxCell>
        <mxCell id="K6hKWRhBZdii8BDBdFps-86" value="" style="shape=waypoint;sketch=0;size=6;pointerEvents=1;points=[];fillColor=none;resizable=0;rotatable=0;perimeter=centerPerimeter;snapToPoint=1;" parent="1" vertex="1">
          <mxGeometry x="70" y="390" width="20" height="20" as="geometry" />
        </mxCell>
        <mxCell id="K6hKWRhBZdii8BDBdFps-89" value="" style="group" parent="1" vertex="1" connectable="0">
          <mxGeometry x="430" y="420" width="130" height="70" as="geometry" />
        </mxCell>
        <mxCell id="K6hKWRhBZdii8BDBdFps-90" value="&amp;nbsp; &amp;nbsp; &amp;nbsp; &amp;nbsp; &amp;nbsp; &amp;nbsp; &amp;nbsp; &amp;nbsp; &amp;nbsp; WD&amp;nbsp; &amp;nbsp; &amp;nbsp; &amp;nbsp; RD&lt;div&gt;&lt;div style=&quot;text-align: left;&quot;&gt;&lt;span style=&quot;background-color: initial;&quot;&gt;wr_en&lt;/span&gt;&lt;/div&gt;&lt;div&gt;&lt;div&gt;&lt;div&gt;&lt;br&gt;&lt;/div&gt;&lt;/div&gt;&lt;/div&gt;&lt;/div&gt;" style="rounded=0;whiteSpace=wrap;html=1;spacingTop=0;spacingBottom=24;" parent="K6hKWRhBZdii8BDBdFps-89" vertex="1">
          <mxGeometry width="130" height="70" as="geometry" />
        </mxCell>
        <mxCell id="K6hKWRhBZdii8BDBdFps-91" value="" style="triangle;whiteSpace=wrap;html=1;" parent="K6hKWRhBZdii8BDBdFps-89" vertex="1">
          <mxGeometry y="50" width="10" height="10" as="geometry" />
        </mxCell>
        <mxCell id="K6hKWRhBZdii8BDBdFps-92" value="n_addr_buf_1" style="text;html=1;align=center;verticalAlign=middle;whiteSpace=wrap;rounded=0;" parent="K6hKWRhBZdii8BDBdFps-89" vertex="1">
          <mxGeometry x="25" y="20" width="80" height="30" as="geometry" />
        </mxCell>
        <mxCell id="K6hKWRhBZdii8BDBdFps-94" style="edgeStyle=orthogonalEdgeStyle;rounded=0;orthogonalLoop=1;jettySize=auto;html=1;entryX=0.5;entryY=0;entryDx=0;entryDy=0;" parent="1" source="K6hKWRhBZdii8BDBdFps-93" target="K6hKWRhBZdii8BDBdFps-30" edge="1">
          <mxGeometry relative="1" as="geometry">
            <Array as="points">
              <mxPoint x="90" y="290" />
              <mxPoint x="495" y="290" />
            </Array>
          </mxGeometry>
        </mxCell>
        <mxCell id="K6hKWRhBZdii8BDBdFps-93" value="" style="shape=waypoint;sketch=0;size=6;pointerEvents=1;points=[];fillColor=none;resizable=0;rotatable=0;perimeter=centerPerimeter;snapToPoint=1;" parent="1" vertex="1">
          <mxGeometry x="80" y="205" width="20" height="20" as="geometry" />
        </mxCell>
        <mxCell id="K6hKWRhBZdii8BDBdFps-111" style="edgeStyle=orthogonalEdgeStyle;rounded=0;orthogonalLoop=1;jettySize=auto;html=1;entryX=1;entryY=0.5;entryDx=0;entryDy=0;fillColor=#6a00ff;strokeColor=#3700CC;" parent="1" source="K6hKWRhBZdii8BDBdFps-102" target="K6hKWRhBZdii8BDBdFps-108" edge="1">
          <mxGeometry relative="1" as="geometry" />
        </mxCell>
        <mxCell id="K6hKWRhBZdii8BDBdFps-105" style="edgeStyle=orthogonalEdgeStyle;rounded=0;orthogonalLoop=1;jettySize=auto;html=1;entryX=0;entryY=0.5;entryDx=0;entryDy=0;entryPerimeter=0;fillColor=#6a00ff;strokeColor=#3700CC;" parent="1" target="K6hKWRhBZdii8BDBdFps-164" edge="1">
          <mxGeometry relative="1" as="geometry">
            <mxPoint x="-260" y="150" as="targetPoint" />
            <Array as="points">
              <mxPoint x="-130" y="150" />
            </Array>
            <mxPoint x="-130" y="328" as="sourcePoint" />
          </mxGeometry>
        </mxCell>
        <mxCell id="K6hKWRhBZdii8BDBdFps-107" style="edgeStyle=orthogonalEdgeStyle;rounded=0;orthogonalLoop=1;jettySize=auto;html=1;entryX=0;entryY=0.5;entryDx=0;entryDy=0;entryPerimeter=0;fillColor=#6a00ff;strokeColor=#3700CC;" parent="1" target="K6hKWRhBZdii8BDBdFps-165" edge="1">
          <mxGeometry relative="1" as="geometry">
            <mxPoint x="-260" y="190" as="targetPoint" />
            <Array as="points">
              <mxPoint x="-140" y="190" />
            </Array>
            <mxPoint x="-140" y="437" as="sourcePoint" />
          </mxGeometry>
        </mxCell>
        <mxCell id="K6hKWRhBZdii8BDBdFps-147" style="edgeStyle=orthogonalEdgeStyle;rounded=0;orthogonalLoop=1;jettySize=auto;html=1;fillColor=#6a00ff;strokeColor=#3700CC;" parent="1" source="K6hKWRhBZdii8BDBdFps-108" edge="1">
          <mxGeometry relative="1" as="geometry">
            <mxPoint x="-400" y="330" as="targetPoint" />
            <Array as="points">
              <mxPoint x="-430" y="370" />
              <mxPoint x="-430" y="330" />
            </Array>
          </mxGeometry>
        </mxCell>
        <mxCell id="K6hKWRhBZdii8BDBdFps-108" value="" style="shape=trapezoid;perimeter=trapezoidPerimeter;whiteSpace=wrap;html=1;fixedSize=1;direction=north;fillColor=#6a00ff;fontColor=#ffffff;strokeColor=#3700CC;" parent="1" vertex="1">
          <mxGeometry x="-610" y="338" width="60" height="120" as="geometry" />
        </mxCell>
        <mxCell id="K6hKWRhBZdii8BDBdFps-102" value="priority_encoder" style="rounded=0;whiteSpace=wrap;html=1;fillColor=#6a00ff;fontColor=#ffffff;strokeColor=#3700CC;" parent="1" vertex="1">
          <mxGeometry x="-510" y="100" width="100" height="170" as="geometry" />
        </mxCell>
        <mxCell id="K6hKWRhBZdii8BDBdFps-119" value="" style="verticalLabelPosition=bottom;shadow=0;dashed=0;align=center;html=1;verticalAlign=top;shape=mxgraph.electrical.logic_gates.logic_gate;operation=or;direction=west;fillColor=#f8cecc;strokeColor=#b85450;" parent="1" vertex="1">
          <mxGeometry x="55" y="774.97" width="50" height="40" as="geometry" />
        </mxCell>
        <mxCell id="K6hKWRhBZdii8BDBdFps-120" value="" style="verticalLabelPosition=bottom;shadow=0;dashed=0;align=center;html=1;verticalAlign=top;shape=mxgraph.electrical.logic_gates.inverter_2;direction=west;fillColor=#6a00ff;fontColor=#ffffff;strokeColor=#3700CC;" parent="1" vertex="1">
          <mxGeometry x="-20" y="784.97" width="30" height="20" as="geometry" />
        </mxCell>
        <mxCell id="K6hKWRhBZdii8BDBdFps-121" style="edgeStyle=orthogonalEdgeStyle;rounded=0;orthogonalLoop=1;jettySize=auto;html=1;entryX=0;entryY=0.5;entryDx=0;entryDy=0;entryPerimeter=0;fillColor=#f8cecc;strokeColor=#b85450;" parent="1" source="K6hKWRhBZdii8BDBdFps-119" target="K6hKWRhBZdii8BDBdFps-120" edge="1">
          <mxGeometry relative="1" as="geometry" />
        </mxCell>
        <mxCell id="K6hKWRhBZdii8BDBdFps-124" value="" style="verticalLabelPosition=bottom;shadow=0;dashed=0;align=center;html=1;verticalAlign=top;shape=mxgraph.electrical.logic_gates.logic_gate;operation=and;direction=west;fillColor=#6a00ff;fontColor=#ffffff;strokeColor=#3700CC;" parent="1" vertex="1">
          <mxGeometry x="-140" y="774.97" width="120" height="80" as="geometry" />
        </mxCell>
        <mxCell id="K6hKWRhBZdii8BDBdFps-135" style="edgeStyle=orthogonalEdgeStyle;rounded=0;orthogonalLoop=1;jettySize=auto;html=1;exitX=1;exitY=0.5;exitDx=0;exitDy=0;exitPerimeter=0;entryX=0.5;entryY=0;entryDx=0;entryDy=0;" parent="1" source="K6hKWRhBZdii8BDBdFps-130" target="K6hKWRhBZdii8BDBdFps-134" edge="1">
          <mxGeometry relative="1" as="geometry" />
        </mxCell>
        <mxCell id="K6hKWRhBZdii8BDBdFps-130" value="" style="verticalLabelPosition=bottom;shadow=0;dashed=0;align=center;html=1;verticalAlign=top;shape=mxgraph.electrical.logic_gates.logic_gate;operation=or;direction=west;" parent="1" vertex="1">
          <mxGeometry x="-270" y="880" width="100" height="80" as="geometry" />
        </mxCell>
        <mxCell id="K6hKWRhBZdii8BDBdFps-132" style="edgeStyle=orthogonalEdgeStyle;rounded=0;orthogonalLoop=1;jettySize=auto;html=1;exitX=1;exitY=0.5;exitDx=0;exitDy=0;exitPerimeter=0;entryX=0;entryY=0.75;entryDx=0;entryDy=0;entryPerimeter=0;" parent="1" source="K6hKWRhBZdii8BDBdFps-124" target="K6hKWRhBZdii8BDBdFps-130" edge="1">
          <mxGeometry relative="1" as="geometry">
            <mxPoint x="-120" y="900" as="targetPoint" />
            <Array as="points">
              <mxPoint x="-150" y="815" />
              <mxPoint x="-150" y="900" />
              <mxPoint x="-170" y="900" />
            </Array>
          </mxGeometry>
        </mxCell>
        <mxCell id="K6hKWRhBZdii8BDBdFps-134" value="pipeline_clear_o" style="shape=offPageConnector;whiteSpace=wrap;html=1;direction=south;spacingLeft=-100;spacingRight=41;" parent="1" vertex="1">
          <mxGeometry x="-340" y="905" width="40" height="30" as="geometry" />
        </mxCell>
        <mxCell id="K6hKWRhBZdii8BDBdFps-136" value="" style="verticalLabelPosition=bottom;shadow=0;dashed=0;align=center;html=1;verticalAlign=top;shape=mxgraph.electrical.logic_gates.logic_gate;operation=and;direction=south;fillColor=#f8cecc;strokeColor=#b85450;" parent="1" vertex="1">
          <mxGeometry x="160" y="640" width="40" height="60" as="geometry" />
        </mxCell>
        <mxCell id="K6hKWRhBZdii8BDBdFps-137" value="" style="verticalLabelPosition=bottom;shadow=0;dashed=0;align=center;html=1;verticalAlign=top;shape=mxgraph.electrical.logic_gates.logic_gate;operation=and;direction=south;fillColor=#f8cecc;strokeColor=#b85450;" parent="1" vertex="1">
          <mxGeometry x="220" y="640" width="40" height="60" as="geometry" />
        </mxCell>
        <mxCell id="K6hKWRhBZdii8BDBdFps-138" value="&#xa;" style="shape=waypoint;sketch=0;size=6;pointerEvents=1;points=[];fillColor=#f8cecc;resizable=0;rotatable=0;perimeter=centerPerimeter;snapToPoint=1;strokeColor=#b85450;" parent="1" vertex="1">
          <mxGeometry x="130" y="510" width="20" height="20" as="geometry" />
        </mxCell>
        <mxCell id="K6hKWRhBZdii8BDBdFps-139" value="&#xa;" style="shape=waypoint;sketch=0;size=6;pointerEvents=1;points=[];fillColor=#f8cecc;resizable=0;rotatable=0;perimeter=centerPerimeter;snapToPoint=1;strokeColor=#b85450;" parent="1" vertex="1">
          <mxGeometry x="120" y="520" width="20" height="20" as="geometry" />
        </mxCell>
        <mxCell id="K6hKWRhBZdii8BDBdFps-140" style="edgeStyle=orthogonalEdgeStyle;rounded=0;orthogonalLoop=1;jettySize=auto;html=1;entryX=0;entryY=0.25;entryDx=0;entryDy=0;entryPerimeter=0;fillColor=#f8cecc;strokeColor=#b85450;" parent="1" source="K6hKWRhBZdii8BDBdFps-138" target="K6hKWRhBZdii8BDBdFps-137" edge="1">
          <mxGeometry relative="1" as="geometry" />
        </mxCell>
        <mxCell id="K6hKWRhBZdii8BDBdFps-141" style="edgeStyle=orthogonalEdgeStyle;rounded=0;orthogonalLoop=1;jettySize=auto;html=1;entryX=0;entryY=0.25;entryDx=0;entryDy=0;entryPerimeter=0;fillColor=#f8cecc;strokeColor=#b85450;" parent="1" source="K6hKWRhBZdii8BDBdFps-139" target="K6hKWRhBZdii8BDBdFps-136" edge="1">
          <mxGeometry relative="1" as="geometry" />
        </mxCell>
        <mxCell id="K6hKWRhBZdii8BDBdFps-142" style="edgeStyle=orthogonalEdgeStyle;rounded=0;orthogonalLoop=1;jettySize=auto;html=1;entryX=0;entryY=0.75;entryDx=0;entryDy=0;entryPerimeter=0;fillColor=#6a00ff;strokeColor=#000000;" parent="1" edge="1">
          <mxGeometry relative="1" as="geometry">
            <mxPoint x="222.5" y="580" as="targetPoint" />
            <Array as="points">
              <mxPoint x="-130" y="540" />
              <mxPoint x="223" y="540" />
              <mxPoint x="223" y="580" />
            </Array>
            <mxPoint x="-130" y="328" as="sourcePoint" />
          </mxGeometry>
        </mxCell>
        <mxCell id="K6hKWRhBZdii8BDBdFps-143" style="edgeStyle=orthogonalEdgeStyle;rounded=0;orthogonalLoop=1;jettySize=auto;html=1;entryX=0;entryY=0.75;entryDx=0;entryDy=0;entryPerimeter=0;fillColor=#6a00ff;strokeColor=#000000;" parent="1" edge="1">
          <mxGeometry relative="1" as="geometry">
            <mxPoint x="-140" y="437" as="sourcePoint" />
            <mxPoint x="162.5" y="580" as="targetPoint" />
            <Array as="points">
              <mxPoint x="-140" y="550" />
              <mxPoint x="162" y="550" />
              <mxPoint x="162" y="580" />
            </Array>
          </mxGeometry>
        </mxCell>
        <mxCell id="K6hKWRhBZdii8BDBdFps-146" style="edgeStyle=orthogonalEdgeStyle;rounded=0;orthogonalLoop=1;jettySize=auto;html=1;entryX=0.5;entryY=0;entryDx=0;entryDy=0;fillColor=#6a00ff;strokeColor=#3700CC;" parent="1" source="K6hKWRhBZdii8BDBdFps-145" target="K6hKWRhBZdii8BDBdFps-108" edge="1">
          <mxGeometry relative="1" as="geometry">
            <mxPoint x="-700" y="500" as="targetPoint" />
            <Array as="points">
              <mxPoint x="-150" y="780" />
              <mxPoint x="-730" y="780" />
              <mxPoint x="-730" y="398" />
            </Array>
          </mxGeometry>
        </mxCell>
        <mxCell id="K6hKWRhBZdii8BDBdFps-145" value="" style="shape=waypoint;sketch=0;size=6;pointerEvents=1;points=[];fillColor=#6a00ff;resizable=0;rotatable=0;perimeter=centerPerimeter;snapToPoint=1;fontColor=#ffffff;strokeColor=#3700CC;" parent="1" vertex="1">
          <mxGeometry x="-160" y="804.97" width="20" height="20" as="geometry" />
        </mxCell>
        <mxCell id="K6hKWRhBZdii8BDBdFps-149" style="edgeStyle=orthogonalEdgeStyle;rounded=0;orthogonalLoop=1;jettySize=auto;html=1;fillColor=#6a00ff;strokeColor=#3700CC;" parent="1" source="K6hKWRhBZdii8BDBdFps-108" edge="1">
          <mxGeometry relative="1" as="geometry">
            <mxPoint x="-350" y="440" as="sourcePoint" />
            <mxPoint x="-400" y="430" as="targetPoint" />
            <Array as="points">
              <mxPoint x="-430" y="440" />
              <mxPoint x="-430" y="430" />
            </Array>
          </mxGeometry>
        </mxCell>
        <mxCell id="K6hKWRhBZdii8BDBdFps-246" style="edgeStyle=orthogonalEdgeStyle;rounded=0;orthogonalLoop=1;jettySize=auto;html=1;entryX=0;entryY=0.5;entryDx=0;entryDy=0;entryPerimeter=0;fillColor=#dae8fc;strokeColor=#6c8ebf;" parent="1" source="K6hKWRhBZdii8BDBdFps-150" target="K6hKWRhBZdii8BDBdFps-241" edge="1">
          <mxGeometry relative="1" as="geometry">
            <mxPoint x="-529.0000000000001" y="150" as="targetPoint" />
            <Array as="points">
              <mxPoint x="190" y="80" />
              <mxPoint x="-530" y="80" />
              <mxPoint x="-530" y="250" />
            </Array>
          </mxGeometry>
        </mxCell>
        <mxCell id="K6hKWRhBZdii8BDBdFps-150" value="" style="shape=waypoint;sketch=0;size=6;pointerEvents=1;points=[];fillColor=#dae8fc;resizable=0;rotatable=0;perimeter=centerPerimeter;snapToPoint=1;strokeColor=#6c8ebf;" parent="1" vertex="1">
          <mxGeometry x="180" y="125" width="20" height="20" as="geometry" />
        </mxCell>
        <mxCell id="K6hKWRhBZdii8BDBdFps-153" style="edgeStyle=orthogonalEdgeStyle;rounded=0;orthogonalLoop=1;jettySize=auto;html=1;entryX=0.5;entryY=0;entryDx=0;entryDy=0;fillColor=#dae8fc;strokeColor=#6c8ebf;" parent="1" source="K6hKWRhBZdii8BDBdFps-152" target="K6hKWRhBZdii8BDBdFps-34" edge="1">
          <mxGeometry relative="1" as="geometry">
            <Array as="points">
              <mxPoint x="-225" y="300" />
            </Array>
          </mxGeometry>
        </mxCell>
        <mxCell id="K6hKWRhBZdii8BDBdFps-152" value="" style="shape=waypoint;sketch=0;size=6;pointerEvents=1;points=[];fillColor=#dae8fc;resizable=0;rotatable=0;perimeter=centerPerimeter;snapToPoint=1;strokeColor=#6c8ebf;" parent="1" vertex="1">
          <mxGeometry x="-540" y="290" width="20" height="20" as="geometry" />
        </mxCell>
        <mxCell id="K6hKWRhBZdii8BDBdFps-164" value="" style="verticalLabelPosition=bottom;shadow=0;dashed=0;align=center;html=1;verticalAlign=top;shape=mxgraph.electrical.logic_gates.inverter_2;direction=west;fillColor=#6a00ff;fontColor=#ffffff;strokeColor=#3700CC;" parent="1" vertex="1">
          <mxGeometry x="-310" y="140" width="30" height="20" as="geometry" />
        </mxCell>
        <mxCell id="K6hKWRhBZdii8BDBdFps-167" style="edgeStyle=orthogonalEdgeStyle;rounded=0;orthogonalLoop=1;jettySize=auto;html=1;entryX=1;entryY=0.529;entryDx=0;entryDy=0;entryPerimeter=0;fillColor=#6a00ff;strokeColor=#3700CC;" parent="1" source="K6hKWRhBZdii8BDBdFps-165" target="K6hKWRhBZdii8BDBdFps-102" edge="1">
          <mxGeometry relative="1" as="geometry">
            <mxPoint x="-400" y="190" as="targetPoint" />
          </mxGeometry>
        </mxCell>
        <mxCell id="K6hKWRhBZdii8BDBdFps-165" value="" style="verticalLabelPosition=bottom;shadow=0;dashed=0;align=center;html=1;verticalAlign=top;shape=mxgraph.electrical.logic_gates.inverter_2;direction=west;fillColor=#6a00ff;fontColor=#ffffff;strokeColor=#3700CC;" parent="1" vertex="1">
          <mxGeometry x="-310" y="180" width="30" height="20" as="geometry" />
        </mxCell>
        <mxCell id="K6hKWRhBZdii8BDBdFps-166" style="edgeStyle=orthogonalEdgeStyle;rounded=0;orthogonalLoop=1;jettySize=auto;html=1;exitX=1;exitY=0.5;exitDx=0;exitDy=0;exitPerimeter=0;entryX=1;entryY=0.294;entryDx=0;entryDy=0;entryPerimeter=0;fillColor=#6a00ff;strokeColor=#3700CC;" parent="1" source="K6hKWRhBZdii8BDBdFps-164" target="K6hKWRhBZdii8BDBdFps-102" edge="1">
          <mxGeometry relative="1" as="geometry">
            <mxPoint x="-320" y="150" as="sourcePoint" />
            <Array as="points" />
            <mxPoint x="-400" y="160" as="targetPoint" />
          </mxGeometry>
        </mxCell>
        <mxCell id="K6hKWRhBZdii8BDBdFps-179" style="edgeStyle=orthogonalEdgeStyle;rounded=0;orthogonalLoop=1;jettySize=auto;html=1;exitX=1;exitY=0.5;exitDx=0;exitDy=0;entryX=0;entryY=0.25;entryDx=0;entryDy=0;entryPerimeter=0;" parent="1" source="K6hKWRhBZdii8BDBdFps-168" edge="1">
          <mxGeometry relative="1" as="geometry">
            <mxPoint x="680" y="510" as="sourcePoint" />
            <mxPoint x="237.5" y="580" as="targetPoint" />
            <Array as="points">
              <mxPoint x="660" y="340" />
              <mxPoint x="660" y="540" />
              <mxPoint x="238" y="540" />
            </Array>
          </mxGeometry>
        </mxCell>
        <mxCell id="K6hKWRhBZdii8BDBdFps-168" value="=" style="rounded=0;whiteSpace=wrap;html=1;" parent="1" vertex="1">
          <mxGeometry x="620" y="330" width="20" height="20" as="geometry" />
        </mxCell>
        <mxCell id="K6hKWRhBZdii8BDBdFps-178" style="edgeStyle=orthogonalEdgeStyle;rounded=0;orthogonalLoop=1;jettySize=auto;html=1;exitX=1;exitY=0.5;exitDx=0;exitDy=0;entryX=0;entryY=0.25;entryDx=0;entryDy=0;entryPerimeter=0;" parent="1" source="K6hKWRhBZdii8BDBdFps-169" edge="1">
          <mxGeometry relative="1" as="geometry">
            <mxPoint x="650" y="510" as="sourcePoint" />
            <mxPoint x="177.5" y="580" as="targetPoint" />
            <Array as="points">
              <mxPoint x="650" y="450" />
              <mxPoint x="650" y="550" />
              <mxPoint x="178" y="550" />
            </Array>
          </mxGeometry>
        </mxCell>
        <mxCell id="K6hKWRhBZdii8BDBdFps-169" value="=" style="rounded=0;whiteSpace=wrap;html=1;" parent="1" vertex="1">
          <mxGeometry x="620" y="440" width="20" height="20" as="geometry" />
        </mxCell>
        <mxCell id="K6hKWRhBZdii8BDBdFps-170" style="edgeStyle=orthogonalEdgeStyle;rounded=0;orthogonalLoop=1;jettySize=auto;html=1;exitX=1;exitY=0.25;exitDx=0;exitDy=0;entryX=0;entryY=0.5;entryDx=0;entryDy=0;" parent="1" source="K6hKWRhBZdii8BDBdFps-30" target="K6hKWRhBZdii8BDBdFps-168" edge="1">
          <mxGeometry relative="1" as="geometry" />
        </mxCell>
        <mxCell id="K6hKWRhBZdii8BDBdFps-172" style="edgeStyle=orthogonalEdgeStyle;rounded=0;orthogonalLoop=1;jettySize=auto;html=1;entryX=0;entryY=0.25;entryDx=0;entryDy=0;" parent="1" source="K6hKWRhBZdii8BDBdFps-171" target="K6hKWRhBZdii8BDBdFps-168" edge="1">
          <mxGeometry relative="1" as="geometry">
            <Array as="points">
              <mxPoint x="600" y="290" />
              <mxPoint x="600" y="335" />
            </Array>
          </mxGeometry>
        </mxCell>
        <mxCell id="K6hKWRhBZdii8BDBdFps-171" value="" style="shape=waypoint;sketch=0;size=6;pointerEvents=1;points=[];fillColor=none;resizable=0;rotatable=0;perimeter=centerPerimeter;snapToPoint=1;" parent="1" vertex="1">
          <mxGeometry x="485" y="280" width="20" height="20" as="geometry" />
        </mxCell>
        <mxCell id="K6hKWRhBZdii8BDBdFps-173" style="edgeStyle=orthogonalEdgeStyle;rounded=0;orthogonalLoop=1;jettySize=auto;html=1;exitX=1;exitY=0.25;exitDx=0;exitDy=0;entryX=0;entryY=0.5;entryDx=0;entryDy=0;" parent="1" source="K6hKWRhBZdii8BDBdFps-90" target="K6hKWRhBZdii8BDBdFps-169" edge="1">
          <mxGeometry relative="1" as="geometry" />
        </mxCell>
        <mxCell id="K6hKWRhBZdii8BDBdFps-175" style="edgeStyle=orthogonalEdgeStyle;rounded=0;orthogonalLoop=1;jettySize=auto;html=1;entryX=0;entryY=0.25;entryDx=0;entryDy=0;" parent="1" source="K6hKWRhBZdii8BDBdFps-174" target="K6hKWRhBZdii8BDBdFps-169" edge="1">
          <mxGeometry relative="1" as="geometry">
            <Array as="points">
              <mxPoint x="600" y="410" />
              <mxPoint x="600" y="445" />
            </Array>
          </mxGeometry>
        </mxCell>
        <mxCell id="K6hKWRhBZdii8BDBdFps-174" value="" style="shape=waypoint;sketch=0;size=6;pointerEvents=1;points=[];fillColor=none;resizable=0;rotatable=0;perimeter=centerPerimeter;snapToPoint=1;" parent="1" vertex="1">
          <mxGeometry x="590" y="324" width="20" height="20" as="geometry" />
        </mxCell>
        <mxCell id="K6hKWRhBZdii8BDBdFps-177" style="edgeStyle=orthogonalEdgeStyle;rounded=0;orthogonalLoop=1;jettySize=auto;html=1;entryX=0.5;entryY=0;entryDx=0;entryDy=0;" parent="1" source="K6hKWRhBZdii8BDBdFps-176" target="K6hKWRhBZdii8BDBdFps-90" edge="1">
          <mxGeometry relative="1" as="geometry" />
        </mxCell>
        <mxCell id="K6hKWRhBZdii8BDBdFps-176" value="" style="shape=waypoint;sketch=0;size=6;pointerEvents=1;points=[];fillColor=none;resizable=0;rotatable=0;perimeter=centerPerimeter;snapToPoint=1;" parent="1" vertex="1">
          <mxGeometry x="590" y="390" width="20" height="20" as="geometry" />
        </mxCell>
        <mxCell id="K6hKWRhBZdii8BDBdFps-194" value="" style="verticalLabelPosition=bottom;shadow=0;dashed=0;align=center;html=1;verticalAlign=top;shape=mxgraph.electrical.logic_gates.logic_gate;operation=or;direction=west;fillColor=#f8cecc;strokeColor=#b85450;" parent="1" vertex="1">
          <mxGeometry x="65" y="860" width="50" height="40" as="geometry" />
        </mxCell>
        <mxCell id="K6hKWRhBZdii8BDBdFps-195" value="" style="verticalLabelPosition=bottom;shadow=0;dashed=0;align=center;html=1;verticalAlign=top;shape=mxgraph.electrical.logic_gates.logic_gate;operation=and;direction=west;fillColor=#f8cecc;strokeColor=#b85450;" parent="1" vertex="1">
          <mxGeometry x="-140" y="880" width="120" height="80" as="geometry" />
        </mxCell>
        <mxCell id="K6hKWRhBZdii8BDBdFps-198" style="edgeStyle=orthogonalEdgeStyle;rounded=0;orthogonalLoop=1;jettySize=auto;html=1;entryX=0;entryY=0.75;entryDx=0;entryDy=0;entryPerimeter=0;fillColor=#f8cecc;strokeColor=#b85450;" parent="1" target="K6hKWRhBZdii8BDBdFps-194" edge="1">
          <mxGeometry relative="1" as="geometry">
            <mxPoint x="180" y="700.0000000000001" as="sourcePoint" />
            <Array as="points">
              <mxPoint x="180" y="870" />
            </Array>
          </mxGeometry>
        </mxCell>
        <mxCell id="K6hKWRhBZdii8BDBdFps-199" style="edgeStyle=orthogonalEdgeStyle;rounded=0;orthogonalLoop=1;jettySize=auto;html=1;entryX=0;entryY=0.25;entryDx=0;entryDy=0;entryPerimeter=0;exitX=1;exitY=0.5;exitDx=0;exitDy=0;exitPerimeter=0;fillColor=#f8cecc;strokeColor=#b85450;" parent="1" source="K6hKWRhBZdii8BDBdFps-137" target="K6hKWRhBZdii8BDBdFps-194" edge="1">
          <mxGeometry relative="1" as="geometry">
            <mxPoint x="240" y="710" as="sourcePoint" />
            <Array as="points">
              <mxPoint x="240" y="890" />
            </Array>
          </mxGeometry>
        </mxCell>
        <mxCell id="K6hKWRhBZdii8BDBdFps-200" value="" style="shape=waypoint;sketch=0;size=6;pointerEvents=1;points=[];fillColor=#d5e8d4;resizable=0;rotatable=0;perimeter=centerPerimeter;snapToPoint=1;strokeColor=#82b366;" parent="1" vertex="1">
          <mxGeometry x="320" y="824.97" width="20" height="20" as="geometry" />
        </mxCell>
        <mxCell id="K6hKWRhBZdii8BDBdFps-201" style="edgeStyle=orthogonalEdgeStyle;rounded=0;orthogonalLoop=1;jettySize=auto;html=1;entryX=0;entryY=0.25;entryDx=0;entryDy=0;entryPerimeter=0;fillColor=#d5e8d4;strokeColor=#82b366;" parent="1" source="K6hKWRhBZdii8BDBdFps-200" target="K6hKWRhBZdii8BDBdFps-195" edge="1">
          <mxGeometry relative="1" as="geometry">
            <Array as="points">
              <mxPoint x="330" y="940" />
            </Array>
          </mxGeometry>
        </mxCell>
        <mxCell id="K6hKWRhBZdii8BDBdFps-202" style="edgeStyle=orthogonalEdgeStyle;rounded=0;orthogonalLoop=1;jettySize=auto;html=1;exitX=1;exitY=0.5;exitDx=0;exitDy=0;exitPerimeter=0;entryX=0;entryY=0.75;entryDx=0;entryDy=0;entryPerimeter=0;fillColor=#f8cecc;strokeColor=#b85450;" parent="1" source="K6hKWRhBZdii8BDBdFps-194" target="K6hKWRhBZdii8BDBdFps-195" edge="1">
          <mxGeometry relative="1" as="geometry" />
        </mxCell>
        <mxCell id="K6hKWRhBZdii8BDBdFps-203" style="edgeStyle=orthogonalEdgeStyle;rounded=0;orthogonalLoop=1;jettySize=auto;html=1;entryX=0.2;entryY=0.5;entryDx=0;entryDy=0;entryPerimeter=0;exitX=1;exitY=0.5;exitDx=0;exitDy=0;exitPerimeter=0;" parent="1" source="K6hKWRhBZdii8BDBdFps-195" target="K6hKWRhBZdii8BDBdFps-130" edge="1">
          <mxGeometry relative="1" as="geometry">
            <Array as="points">
              <mxPoint x="-190" y="920" />
            </Array>
          </mxGeometry>
        </mxCell>
        <mxCell id="K6hKWRhBZdii8BDBdFps-211" style="edgeStyle=orthogonalEdgeStyle;rounded=0;orthogonalLoop=1;jettySize=auto;html=1;exitX=1;exitY=0.5;exitDx=0;exitDy=0;exitPerimeter=0;entryX=0;entryY=0.75;entryDx=0;entryDy=0;entryPerimeter=0;" parent="1" target="K6hKWRhBZdii8BDBdFps-136" edge="1">
          <mxGeometry relative="1" as="geometry">
            <mxPoint x="170" y="620" as="sourcePoint" />
          </mxGeometry>
        </mxCell>
        <mxCell id="K6hKWRhBZdii8BDBdFps-213" style="edgeStyle=orthogonalEdgeStyle;rounded=0;orthogonalLoop=1;jettySize=auto;html=1;entryX=0;entryY=0.75;entryDx=0;entryDy=0;entryPerimeter=0;" parent="1" target="K6hKWRhBZdii8BDBdFps-137" edge="1">
          <mxGeometry relative="1" as="geometry">
            <mxPoint x="230" y="620" as="sourcePoint" />
          </mxGeometry>
        </mxCell>
        <mxCell id="K6hKWRhBZdii8BDBdFps-214" value="" style="shape=waypoint;sketch=0;size=6;pointerEvents=1;points=[];fillColor=#000000;resizable=0;rotatable=0;perimeter=centerPerimeter;snapToPoint=1;fontColor=#ffffff;strokeColor=#3700CC;" parent="1" vertex="1">
          <mxGeometry x="-140" y="490" width="20" height="20" as="geometry" />
        </mxCell>
        <mxCell id="K6hKWRhBZdii8BDBdFps-215" value="" style="shape=waypoint;sketch=0;size=6;pointerEvents=1;points=[];fillColor=#000000;resizable=0;rotatable=0;perimeter=centerPerimeter;snapToPoint=1;fontColor=#ffffff;strokeColor=#3700CC;" parent="1" vertex="1">
          <mxGeometry x="-150" y="500" width="20" height="20" as="geometry" />
        </mxCell>
        <mxCell id="K6hKWRhBZdii8BDBdFps-217" value="" style="verticalLabelPosition=bottom;shadow=0;dashed=0;align=center;html=1;verticalAlign=top;shape=mxgraph.electrical.logic_gates.logic_gate;operation=and;points=[[0,0.25,0,0,0],[0,0.5,0,0,0],[0,0.75,0,0,0],[1,0.5,0,0,0]];direction=south;fillColor=#f8cecc;strokeColor=#b85450;" parent="1" vertex="1">
          <mxGeometry x="470" y="640" width="40" height="60" as="geometry" />
        </mxCell>
        <mxCell id="K6hKWRhBZdii8BDBdFps-218" value="" style="verticalLabelPosition=bottom;shadow=0;dashed=0;align=center;html=1;verticalAlign=top;shape=mxgraph.electrical.logic_gates.logic_gate;operation=and;points=[[0,0.25,0,0,0],[0,0.5,0,0,0],[0,0.75,0,0,0],[1,0.5,0,0,0]];direction=south;fillColor=#f8cecc;strokeColor=#b85450;" parent="1" vertex="1">
          <mxGeometry x="530" y="640" width="40" height="60" as="geometry" />
        </mxCell>
        <mxCell id="K6hKWRhBZdii8BDBdFps-219" style="edgeStyle=orthogonalEdgeStyle;rounded=0;orthogonalLoop=1;jettySize=auto;html=1;entryX=0;entryY=0.75;entryDx=0;entryDy=0;entryPerimeter=0;fillColor=#6a00ff;strokeColor=#000000;" parent="1" source="K6hKWRhBZdii8BDBdFps-215" target="K6hKWRhBZdii8BDBdFps-217" edge="1">
          <mxGeometry relative="1" as="geometry" />
        </mxCell>
        <mxCell id="K6hKWRhBZdii8BDBdFps-220" style="edgeStyle=orthogonalEdgeStyle;rounded=0;orthogonalLoop=1;jettySize=auto;html=1;entryX=0;entryY=0.75;entryDx=0;entryDy=0;entryPerimeter=0;fillColor=#6a00ff;strokeColor=#000000;" parent="1" source="K6hKWRhBZdii8BDBdFps-214" target="K6hKWRhBZdii8BDBdFps-218" edge="1">
          <mxGeometry relative="1" as="geometry" />
        </mxCell>
        <mxCell id="K6hKWRhBZdii8BDBdFps-223" style="edgeStyle=orthogonalEdgeStyle;rounded=0;orthogonalLoop=1;jettySize=auto;html=1;entryX=0;entryY=0.25;entryDx=0;entryDy=0;entryPerimeter=0;fillColor=#f8cecc;strokeColor=#b85450;" parent="1" source="K6hKWRhBZdii8BDBdFps-221" target="K6hKWRhBZdii8BDBdFps-218" edge="1">
          <mxGeometry relative="1" as="geometry">
            <mxPoint x="360" y="520" as="targetPoint" />
          </mxGeometry>
        </mxCell>
        <mxCell id="K6hKWRhBZdii8BDBdFps-221" value="" style="shape=waypoint;sketch=0;size=6;pointerEvents=1;points=[];fillColor=#f8cecc;resizable=0;rotatable=0;perimeter=centerPerimeter;snapToPoint=1;strokeColor=#b85450;" parent="1" vertex="1">
          <mxGeometry x="240" y="510" width="20" height="20" as="geometry" />
        </mxCell>
        <mxCell id="K6hKWRhBZdii8BDBdFps-222" value="" style="shape=waypoint;sketch=0;size=6;pointerEvents=1;points=[];fillColor=#f8cecc;resizable=0;rotatable=0;perimeter=centerPerimeter;snapToPoint=1;strokeColor=#b85450;" parent="1" vertex="1">
          <mxGeometry x="180" y="520" width="20" height="20" as="geometry" />
        </mxCell>
        <mxCell id="K6hKWRhBZdii8BDBdFps-224" style="edgeStyle=orthogonalEdgeStyle;rounded=0;orthogonalLoop=1;jettySize=auto;html=1;entryX=0;entryY=0.25;entryDx=0;entryDy=0;entryPerimeter=0;fillColor=#f8cecc;strokeColor=#b85450;" parent="1" source="K6hKWRhBZdii8BDBdFps-222" target="K6hKWRhBZdii8BDBdFps-217" edge="1">
          <mxGeometry relative="1" as="geometry" />
        </mxCell>
        <mxCell id="K6hKWRhBZdii8BDBdFps-233" value="" style="verticalLabelPosition=bottom;shadow=0;dashed=0;align=center;html=1;verticalAlign=top;shape=mxgraph.electrical.logic_gates.logic_gate;operation=or;direction=west;fillColor=#f8cecc;strokeColor=#b85450;" parent="1" vertex="1">
          <mxGeometry x="65" y="990" width="50" height="40" as="geometry" />
        </mxCell>
        <mxCell id="K6hKWRhBZdii8BDBdFps-234" value="" style="verticalLabelPosition=bottom;shadow=0;dashed=0;align=center;html=1;verticalAlign=top;shape=mxgraph.electrical.logic_gates.logic_gate;operation=and;direction=west;fillColor=#f8cecc;strokeColor=#b85450;" parent="1" vertex="1">
          <mxGeometry x="-140" y="990" width="120" height="80" as="geometry" />
        </mxCell>
        <mxCell id="K6hKWRhBZdii8BDBdFps-235" style="edgeStyle=orthogonalEdgeStyle;rounded=0;orthogonalLoop=1;jettySize=auto;html=1;entryX=0;entryY=0.25;entryDx=0;entryDy=0;entryPerimeter=0;fillColor=#d5e8d4;strokeColor=#82b366;" parent="1" source="K6hKWRhBZdii8BDBdFps-39" target="K6hKWRhBZdii8BDBdFps-234" edge="1">
          <mxGeometry relative="1" as="geometry">
            <Array as="points">
              <mxPoint x="350" y="125" />
              <mxPoint x="350" y="1050" />
            </Array>
          </mxGeometry>
        </mxCell>
        <mxCell id="K6hKWRhBZdii8BDBdFps-236" style="edgeStyle=orthogonalEdgeStyle;rounded=0;orthogonalLoop=1;jettySize=auto;html=1;entryX=0;entryY=0.75;entryDx=0;entryDy=0;entryPerimeter=0;fillColor=#f8cecc;strokeColor=#b85450;" parent="1" source="K6hKWRhBZdii8BDBdFps-217" target="K6hKWRhBZdii8BDBdFps-233" edge="1">
          <mxGeometry relative="1" as="geometry">
            <Array as="points">
              <mxPoint x="490" y="1000" />
            </Array>
          </mxGeometry>
        </mxCell>
        <mxCell id="K6hKWRhBZdii8BDBdFps-237" style="edgeStyle=orthogonalEdgeStyle;rounded=0;orthogonalLoop=1;jettySize=auto;html=1;entryX=0;entryY=0.25;entryDx=0;entryDy=0;entryPerimeter=0;fillColor=#f8cecc;strokeColor=#b85450;" parent="1" source="K6hKWRhBZdii8BDBdFps-218" target="K6hKWRhBZdii8BDBdFps-233" edge="1">
          <mxGeometry relative="1" as="geometry">
            <Array as="points">
              <mxPoint x="550" y="1020" />
            </Array>
          </mxGeometry>
        </mxCell>
        <mxCell id="K6hKWRhBZdii8BDBdFps-238" style="edgeStyle=orthogonalEdgeStyle;rounded=0;orthogonalLoop=1;jettySize=auto;html=1;exitX=1;exitY=0.5;exitDx=0;exitDy=0;exitPerimeter=0;entryX=0;entryY=0.75;entryDx=0;entryDy=0;entryPerimeter=0;fillColor=#f8cecc;strokeColor=#b85450;" parent="1" source="K6hKWRhBZdii8BDBdFps-233" target="K6hKWRhBZdii8BDBdFps-234" edge="1">
          <mxGeometry relative="1" as="geometry" />
        </mxCell>
        <mxCell id="K6hKWRhBZdii8BDBdFps-239" style="edgeStyle=orthogonalEdgeStyle;rounded=0;orthogonalLoop=1;jettySize=auto;html=1;entryX=0;entryY=0.25;entryDx=0;entryDy=0;entryPerimeter=0;" parent="1" source="K6hKWRhBZdii8BDBdFps-234" target="K6hKWRhBZdii8BDBdFps-130" edge="1">
          <mxGeometry relative="1" as="geometry">
            <Array as="points">
              <mxPoint x="-150" y="1030" />
              <mxPoint x="-150" y="940" />
              <mxPoint x="-170" y="940" />
            </Array>
          </mxGeometry>
        </mxCell>
        <mxCell id="K6hKWRhBZdii8BDBdFps-249" style="edgeStyle=orthogonalEdgeStyle;rounded=0;orthogonalLoop=1;jettySize=auto;html=1;entryX=0.5;entryY=0;entryDx=0;entryDy=0;fillColor=#dae8fc;strokeColor=#6c8ebf;" parent="1" source="K6hKWRhBZdii8BDBdFps-241" target="K6hKWRhBZdii8BDBdFps-77" edge="1">
          <mxGeometry relative="1" as="geometry">
            <mxPoint x="-490" y="330" as="targetPoint" />
            <Array as="points">
              <mxPoint x="-530" y="410" />
              <mxPoint x="-225" y="410" />
            </Array>
          </mxGeometry>
        </mxCell>
        <mxCell id="K6hKWRhBZdii8BDBdFps-241" value="" style="verticalLabelPosition=bottom;shadow=0;dashed=0;align=center;html=1;verticalAlign=top;shape=mxgraph.electrical.logic_gates.inverter_2;direction=south;fillColor=#dae8fc;strokeColor=#6c8ebf;" parent="1" vertex="1">
          <mxGeometry x="-540" y="250" width="20" height="30" as="geometry" />
        </mxCell>
        <mxCell id="K6hKWRhBZdii8BDBdFps-243" value="" style="verticalLabelPosition=bottom;shadow=0;dashed=0;align=center;html=1;verticalAlign=top;shape=mxgraph.electrical.logic_gates.logic_gate;operation=and;negating=1;negSize=0.15;direction=south;" parent="1" vertex="1">
          <mxGeometry x="155" y="580" width="30" height="50" as="geometry" />
        </mxCell>
        <mxCell id="K6hKWRhBZdii8BDBdFps-244" value="" style="verticalLabelPosition=bottom;shadow=0;dashed=0;align=center;html=1;verticalAlign=top;shape=mxgraph.electrical.logic_gates.logic_gate;operation=and;negating=1;negSize=0.15;direction=south;" parent="1" vertex="1">
          <mxGeometry x="215" y="580" width="30" height="50" as="geometry" />
        </mxCell>
        <mxCell id="K6hKWRhBZdii8BDBdFps-251" style="edgeStyle=orthogonalEdgeStyle;rounded=0;orthogonalLoop=1;jettySize=auto;html=1;entryX=0;entryY=0.25;entryDx=0;entryDy=0;entryPerimeter=0;fillColor=#f8cecc;strokeColor=#b85450;" parent="1" source="K6hKWRhBZdii8BDBdFps-250" target="K6hKWRhBZdii8BDBdFps-252" edge="1">
          <mxGeometry relative="1" as="geometry">
            <mxPoint x="-660" y="460" as="targetPoint" />
            <Array as="points">
              <mxPoint x="-138" y="770" />
              <mxPoint x="-660" y="770" />
              <mxPoint x="-660" y="520" />
            </Array>
          </mxGeometry>
        </mxCell>
        <mxCell id="K6hKWRhBZdii8BDBdFps-250" value="" style="shape=waypoint;sketch=0;size=6;pointerEvents=1;points=[];fillColor=none;resizable=0;rotatable=0;perimeter=centerPerimeter;snapToPoint=1;" parent="1" vertex="1">
          <mxGeometry x="-148" y="910" width="20" height="20" as="geometry" />
        </mxCell>
        <mxCell id="K6hKWRhBZdii8BDBdFps-252" value="" style="verticalLabelPosition=bottom;shadow=0;dashed=0;align=center;html=1;verticalAlign=top;shape=mxgraph.electrical.logic_gates.logic_gate;operation=or;direction=east;points=[[0,0.25,0,0,0],[0,0.75,0,0,0],[0.5,1,0,0,0],[1,0.5,0,0,0]];fillColor=#f8cecc;strokeColor=#b85450;" parent="1" vertex="1">
          <mxGeometry x="-610" y="500" width="100" height="80" as="geometry" />
        </mxCell>
        <mxCell id="09FnoaacUL5NaG-trUYr-3" style="edgeStyle=orthogonalEdgeStyle;rounded=0;orthogonalLoop=1;jettySize=auto;html=1;entryX=0;entryY=0.25;entryDx=0;entryDy=0;" parent="1" source="09FnoaacUL5NaG-trUYr-1" target="K6hKWRhBZdii8BDBdFps-25" edge="1">
          <mxGeometry relative="1" as="geometry">
            <Array as="points">
              <mxPoint x="-304" y="280" />
              <mxPoint x="-80" y="280" />
              <mxPoint x="-80" y="327" />
            </Array>
          </mxGeometry>
        </mxCell>
        <mxCell id="09FnoaacUL5NaG-trUYr-1" value="" style="shape=waypoint;sketch=0;size=6;pointerEvents=1;points=[];fillColor=none;resizable=0;rotatable=0;perimeter=centerPerimeter;snapToPoint=1;" parent="1" vertex="1">
          <mxGeometry x="-314" y="327" width="20" height="20" as="geometry" />
        </mxCell>
        <mxCell id="09FnoaacUL5NaG-trUYr-6" style="edgeStyle=orthogonalEdgeStyle;rounded=0;orthogonalLoop=1;jettySize=auto;html=1;entryX=0;entryY=0.25;entryDx=0;entryDy=0;" parent="1" source="09FnoaacUL5NaG-trUYr-2" target="K6hKWRhBZdii8BDBdFps-68" edge="1">
          <mxGeometry relative="1" as="geometry">
            <Array as="points">
              <mxPoint x="-304" y="390" />
              <mxPoint x="-80" y="390" />
              <mxPoint x="-80" y="438" />
            </Array>
          </mxGeometry>
        </mxCell>
        <mxCell id="09FnoaacUL5NaG-trUYr-2" value="" style="shape=waypoint;sketch=0;size=6;pointerEvents=1;points=[];fillColor=none;resizable=0;rotatable=0;perimeter=centerPerimeter;snapToPoint=1;" parent="1" vertex="1">
          <mxGeometry x="-314" y="442" width="20" height="20" as="geometry" />
        </mxCell>
        <mxCell id="09FnoaacUL5NaG-trUYr-5" style="edgeStyle=orthogonalEdgeStyle;rounded=0;orthogonalLoop=1;jettySize=auto;html=1;entryX=0;entryY=0.25;entryDx=0;entryDy=0;" parent="1" source="09FnoaacUL5NaG-trUYr-4" target="K6hKWRhBZdii8BDBdFps-30" edge="1">
          <mxGeometry relative="1" as="geometry">
            <Array as="points">
              <mxPoint x="-80" y="280" />
              <mxPoint x="420" y="280" />
              <mxPoint x="420" y="327" />
            </Array>
          </mxGeometry>
        </mxCell>
        <mxCell id="09FnoaacUL5NaG-trUYr-4" value="" style="shape=waypoint;sketch=0;size=6;pointerEvents=1;points=[];fillColor=none;resizable=0;rotatable=0;perimeter=centerPerimeter;snapToPoint=1;" parent="1" vertex="1">
          <mxGeometry x="-90" y="270" width="20" height="20" as="geometry" />
        </mxCell>
        <mxCell id="09FnoaacUL5NaG-trUYr-8" style="edgeStyle=orthogonalEdgeStyle;rounded=0;orthogonalLoop=1;jettySize=auto;html=1;entryX=0;entryY=0.25;entryDx=0;entryDy=0;" parent="1" source="09FnoaacUL5NaG-trUYr-7" target="K6hKWRhBZdii8BDBdFps-90" edge="1">
          <mxGeometry relative="1" as="geometry">
            <mxPoint x="370" y="420" as="targetPoint" />
            <Array as="points">
              <mxPoint x="-80" y="390" />
              <mxPoint x="420" y="390" />
              <mxPoint x="420" y="438" />
            </Array>
          </mxGeometry>
        </mxCell>
        <mxCell id="09FnoaacUL5NaG-trUYr-7" value="" style="shape=waypoint;sketch=0;size=6;pointerEvents=1;points=[];fillColor=none;resizable=0;rotatable=0;perimeter=centerPerimeter;snapToPoint=1;" parent="1" vertex="1">
          <mxGeometry x="-90" y="380" width="20" height="20" as="geometry" />
        </mxCell>
        <mxCell id="09FnoaacUL5NaG-trUYr-9" value="" style="shape=waypoint;sketch=0;size=6;pointerEvents=1;points=[];fillColor=#6a00ff;resizable=0;rotatable=0;perimeter=centerPerimeter;snapToPoint=1;fontColor=#ffffff;strokeColor=#3700CC;" parent="1" vertex="1">
          <mxGeometry x="-140" y="310" width="20" height="20" as="geometry" />
        </mxCell>
        <mxCell id="09FnoaacUL5NaG-trUYr-10" value="" style="shape=waypoint;sketch=0;size=6;pointerEvents=1;points=[];fillColor=#6a00ff;resizable=0;rotatable=0;perimeter=centerPerimeter;snapToPoint=1;fontColor=#ffffff;strokeColor=#3700CC;" parent="1" vertex="1">
          <mxGeometry x="-150" y="420" width="20" height="20" as="geometry" />
        </mxCell>
        <mxCell id="09FnoaacUL5NaG-trUYr-11" value="" style="endArrow=none;html=1;rounded=0;exitX=1;exitY=0.25;exitDx=0;exitDy=0;entryX=0.603;entryY=0.608;entryDx=0;entryDy=0;entryPerimeter=0;fillColor=#6a00ff;strokeColor=#3700CC;" parent="1" source="K6hKWRhBZdii8BDBdFps-34" target="09FnoaacUL5NaG-trUYr-9" edge="1">
          <mxGeometry width="50" height="50" relative="1" as="geometry">
            <mxPoint x="-140" y="390" as="sourcePoint" />
            <mxPoint x="-90" y="340" as="targetPoint" />
          </mxGeometry>
        </mxCell>
        <mxCell id="09FnoaacUL5NaG-trUYr-12" value="" style="endArrow=none;html=1;rounded=0;exitX=1;exitY=0.25;exitDx=0;exitDy=0;entryX=0.672;entryY=0.567;entryDx=0;entryDy=0;entryPerimeter=0;" parent="1" source="K6hKWRhBZdii8BDBdFps-77" target="09FnoaacUL5NaG-trUYr-10" edge="1">
          <mxGeometry width="50" height="50" relative="1" as="geometry">
            <mxPoint x="-170" y="450" as="sourcePoint" />
            <mxPoint x="-140" y="442" as="targetPoint" />
          </mxGeometry>
        </mxCell>
        <mxCell id="09FnoaacUL5NaG-trUYr-16" style="edgeStyle=orthogonalEdgeStyle;rounded=0;orthogonalLoop=1;jettySize=auto;html=1;entryX=0;entryY=0.75;entryDx=0;entryDy=0;entryPerimeter=0;fillColor=#f8cecc;strokeColor=#b85450;" parent="1" source="09FnoaacUL5NaG-trUYr-13" target="K6hKWRhBZdii8BDBdFps-252" edge="1">
          <mxGeometry relative="1" as="geometry">
            <mxPoint x="-620" y="560" as="targetPoint" />
            <Array as="points">
              <mxPoint x="-130" y="750" />
              <mxPoint x="-640" y="750" />
              <mxPoint x="-640" y="560" />
            </Array>
          </mxGeometry>
        </mxCell>
        <mxCell id="09FnoaacUL5NaG-trUYr-13" value="" style="shape=waypoint;sketch=0;size=6;pointerEvents=1;points=[];fillColor=none;resizable=0;rotatable=0;perimeter=centerPerimeter;snapToPoint=1;" parent="1" vertex="1">
          <mxGeometry x="-140" y="1020" width="20" height="20" as="geometry" />
        </mxCell>
        <mxCell id="09FnoaacUL5NaG-trUYr-14" value="" style="shape=trapezoid;perimeter=trapezoidPerimeter;whiteSpace=wrap;html=1;fixedSize=1;direction=north;fillColor=#f8cecc;strokeColor=#b85450;" parent="1" vertex="1">
          <mxGeometry x="-520" y="480" width="60" height="120" as="geometry" />
        </mxCell>
        <mxCell id="09FnoaacUL5NaG-trUYr-17" style="edgeStyle=orthogonalEdgeStyle;rounded=0;orthogonalLoop=1;jettySize=auto;html=1;exitX=0.75;exitY=1;exitDx=0;exitDy=0;entryX=0;entryY=0.25;entryDx=0;entryDy=0;entryPerimeter=0;fillColor=#f8cecc;strokeColor=#b85450;" parent="1" source="09FnoaacUL5NaG-trUYr-14" target="O-KffDvgN3JifZ1gRdpQ-30" edge="1">
          <mxGeometry relative="1" as="geometry">
            <Array as="points">
              <mxPoint x="-420" y="510" />
              <mxPoint x="-420" y="345" />
            </Array>
            <mxPoint x="-410" y="340" as="targetPoint" />
          </mxGeometry>
        </mxCell>
        <mxCell id="09FnoaacUL5NaG-trUYr-18" style="edgeStyle=orthogonalEdgeStyle;rounded=0;orthogonalLoop=1;jettySize=auto;html=1;exitX=0.25;exitY=1;exitDx=0;exitDy=0;fillColor=#f8cecc;strokeColor=#b85450;" parent="1" source="09FnoaacUL5NaG-trUYr-14" edge="1">
          <mxGeometry relative="1" as="geometry">
            <Array as="points">
              <mxPoint x="-410" y="570" />
              <mxPoint x="-410" y="460" />
            </Array>
            <mxPoint x="-400" y="460" as="targetPoint" />
          </mxGeometry>
        </mxCell>
        <mxCell id="09FnoaacUL5NaG-trUYr-29" style="edgeStyle=orthogonalEdgeStyle;rounded=0;orthogonalLoop=1;jettySize=auto;html=1;" parent="1" source="09FnoaacUL5NaG-trUYr-19" edge="1">
          <mxGeometry relative="1" as="geometry">
            <mxPoint x="640" y="135" as="targetPoint" />
          </mxGeometry>
        </mxCell>
        <mxCell id="09FnoaacUL5NaG-trUYr-19" value="1&lt;div&gt;&lt;br&gt;&lt;/div&gt;&lt;div&gt;0&lt;/div&gt;" style="shape=trapezoid;perimeter=trapezoidPerimeter;whiteSpace=wrap;html=1;fixedSize=1;direction=south;spacingRight=12;" parent="1" vertex="1">
          <mxGeometry x="510" y="75" width="30" height="75" as="geometry" />
        </mxCell>
        <mxCell id="09FnoaacUL5NaG-trUYr-21" style="edgeStyle=orthogonalEdgeStyle;rounded=0;orthogonalLoop=1;jettySize=auto;html=1;entryX=0;entryY=0.5;entryDx=0;entryDy=0;" parent="1" source="09FnoaacUL5NaG-trUYr-20" target="O-KffDvgN3JifZ1gRdpQ-48" edge="1">
          <mxGeometry relative="1" as="geometry" />
        </mxCell>
        <mxCell id="09FnoaacUL5NaG-trUYr-20" value="dna_load" style="shape=offPageConnector;whiteSpace=wrap;html=1;direction=north;spacingLeft=-100;" parent="1" vertex="1">
          <mxGeometry x="20" y="30" width="40" height="30" as="geometry" />
        </mxCell>
        <mxCell id="09FnoaacUL5NaG-trUYr-23" value="" style="shape=waypoint;sketch=0;size=6;pointerEvents=1;points=[];fillColor=none;resizable=0;rotatable=0;perimeter=centerPerimeter;snapToPoint=1;" parent="1" vertex="1">
          <mxGeometry x="420" y="280" width="20" height="20" as="geometry" />
        </mxCell>
        <mxCell id="09FnoaacUL5NaG-trUYr-27" value="PC+4" style="rounded=0;whiteSpace=wrap;html=1;" parent="1" vertex="1">
          <mxGeometry x="574.13" y="155" width="40" height="20" as="geometry" />
        </mxCell>
        <mxCell id="09FnoaacUL5NaG-trUYr-28" style="edgeStyle=orthogonalEdgeStyle;rounded=0;orthogonalLoop=1;jettySize=auto;html=1;entryX=0.869;entryY=0.971;entryDx=0;entryDy=0;entryPerimeter=0;" parent="1" source="09FnoaacUL5NaG-trUYr-27" edge="1">
          <mxGeometry relative="1" as="geometry">
            <mxPoint x="640.0000000000003" y="165.17500000000018" as="targetPoint" />
          </mxGeometry>
        </mxCell>
        <mxCell id="09FnoaacUL5NaG-trUYr-30" value="pc_o" style="shape=offPageConnector;whiteSpace=wrap;html=1;direction=north;spacingLeft=80;" parent="1" vertex="1">
          <mxGeometry x="770" y="135" width="40" height="30" as="geometry" />
        </mxCell>
        <mxCell id="O-KffDvgN3JifZ1gRdpQ-1" value="idx_valid_o" style="text;html=1;align=center;verticalAlign=middle;whiteSpace=wrap;rounded=0;" vertex="1" parent="1">
          <mxGeometry x="-500" y="240" width="60" height="30" as="geometry" />
        </mxCell>
        <mxCell id="O-KffDvgN3JifZ1gRdpQ-4" style="edgeStyle=orthogonalEdgeStyle;rounded=0;orthogonalLoop=1;jettySize=auto;html=1;fillColor=#6a00ff;strokeColor=#3700CC;" edge="1" parent="1" source="O-KffDvgN3JifZ1gRdpQ-1">
          <mxGeometry relative="1" as="geometry">
            <mxPoint x="-400" y="317" as="targetPoint" />
            <Array as="points">
              <mxPoint x="-450" y="317" />
            </Array>
          </mxGeometry>
        </mxCell>
        <mxCell id="O-KffDvgN3JifZ1gRdpQ-8" value="" style="endArrow=classic;html=1;rounded=0;" edge="1" parent="1">
          <mxGeometry width="50" height="50" relative="1" as="geometry">
            <mxPoint x="-300" y="335.94" as="sourcePoint" />
            <mxPoint x="-290" y="335.94" as="targetPoint" />
          </mxGeometry>
        </mxCell>
        <mxCell id="O-KffDvgN3JifZ1gRdpQ-10" value="" style="endArrow=classic;html=1;rounded=0;" edge="1" parent="1">
          <mxGeometry width="50" height="50" relative="1" as="geometry">
            <mxPoint x="-300" y="451.94" as="sourcePoint" />
            <mxPoint x="-290" y="451.94" as="targetPoint" />
          </mxGeometry>
        </mxCell>
        <mxCell id="O-KffDvgN3JifZ1gRdpQ-11" value="" style="shape=waypoint;sketch=0;size=6;pointerEvents=1;points=[];fillColor=#6a00ff;resizable=0;rotatable=0;perimeter=centerPerimeter;snapToPoint=1;fontColor=#ffffff;strokeColor=#3700CC;" vertex="1" parent="1">
          <mxGeometry x="-460" y="307" width="20" height="20" as="geometry" />
        </mxCell>
        <mxCell id="O-KffDvgN3JifZ1gRdpQ-12" style="edgeStyle=orthogonalEdgeStyle;rounded=0;orthogonalLoop=1;jettySize=auto;html=1;fillColor=#6a00ff;strokeColor=#3700CC;" edge="1" parent="1" source="O-KffDvgN3JifZ1gRdpQ-11">
          <mxGeometry relative="1" as="geometry">
            <mxPoint x="-400" y="444" as="targetPoint" />
            <Array as="points">
              <mxPoint x="-450" y="444" />
              <mxPoint x="-400" y="444" />
            </Array>
          </mxGeometry>
        </mxCell>
        <mxCell id="O-KffDvgN3JifZ1gRdpQ-28" style="edgeStyle=orthogonalEdgeStyle;rounded=0;orthogonalLoop=1;jettySize=auto;html=1;entryX=0;entryY=0.5;entryDx=0;entryDy=0;fillColor=#f8cecc;strokeColor=#b85450;" edge="1" parent="1" source="O-KffDvgN3JifZ1gRdpQ-18" target="09FnoaacUL5NaG-trUYr-14">
          <mxGeometry relative="1" as="geometry">
            <Array as="points">
              <mxPoint x="-490" y="635" />
            </Array>
          </mxGeometry>
        </mxCell>
        <mxCell id="O-KffDvgN3JifZ1gRdpQ-18" value="encoder" style="rounded=0;whiteSpace=wrap;html=1;fillColor=#f8cecc;strokeColor=#b85450;" vertex="1" parent="1">
          <mxGeometry x="-290" y="550" width="100" height="170" as="geometry" />
        </mxCell>
        <mxCell id="O-KffDvgN3JifZ1gRdpQ-20" value="" style="verticalLabelPosition=bottom;shadow=0;dashed=0;align=center;html=1;verticalAlign=top;shape=mxgraph.electrical.logic_gates.logic_gate;operation=and;fillColor=#6a00ff;fontColor=#ffffff;strokeColor=#3700CC;" vertex="1" parent="1">
          <mxGeometry x="-400" y="310" width="40" height="26" as="geometry" />
        </mxCell>
        <mxCell id="O-KffDvgN3JifZ1gRdpQ-21" value="" style="verticalLabelPosition=bottom;shadow=0;dashed=0;align=center;html=1;verticalAlign=top;shape=mxgraph.electrical.logic_gates.logic_gate;operation=and;fillColor=#6a00ff;fontColor=#ffffff;strokeColor=#3700CC;" vertex="1" parent="1">
          <mxGeometry x="-400" y="424" width="40" height="26" as="geometry" />
        </mxCell>
        <mxCell id="O-KffDvgN3JifZ1gRdpQ-22" value="" style="verticalLabelPosition=bottom;shadow=0;dashed=0;align=center;html=1;verticalAlign=top;shape=mxgraph.electrical.logic_gates.logic_gate;operation=or;" vertex="1" parent="1">
          <mxGeometry x="-360" y="308" width="60" height="56" as="geometry" />
        </mxCell>
        <mxCell id="O-KffDvgN3JifZ1gRdpQ-23" value="" style="verticalLabelPosition=bottom;shadow=0;dashed=0;align=center;html=1;verticalAlign=top;shape=mxgraph.electrical.logic_gates.logic_gate;operation=or;" vertex="1" parent="1">
          <mxGeometry x="-360" y="421" width="60" height="62" as="geometry" />
        </mxCell>
        <mxCell id="O-KffDvgN3JifZ1gRdpQ-26" style="edgeStyle=orthogonalEdgeStyle;rounded=0;orthogonalLoop=1;jettySize=auto;html=1;entryX=1;entryY=0.25;entryDx=0;entryDy=0;fillColor=#f8cecc;strokeColor=#b85450;" edge="1" parent="1" source="O-KffDvgN3JifZ1gRdpQ-24" target="O-KffDvgN3JifZ1gRdpQ-18">
          <mxGeometry relative="1" as="geometry">
            <Array as="points">
              <mxPoint x="120" y="640" />
              <mxPoint x="120" y="593" />
            </Array>
          </mxGeometry>
        </mxCell>
        <mxCell id="O-KffDvgN3JifZ1gRdpQ-24" value="&#xa;" style="shape=waypoint;sketch=0;size=6;pointerEvents=1;points=[];fillColor=#f8cecc;resizable=0;rotatable=0;perimeter=centerPerimeter;snapToPoint=1;strokeColor=#b85450;" vertex="1" parent="1">
          <mxGeometry x="130" y="630" width="20" height="20" as="geometry" />
        </mxCell>
        <mxCell id="O-KffDvgN3JifZ1gRdpQ-27" style="edgeStyle=orthogonalEdgeStyle;rounded=0;orthogonalLoop=1;jettySize=auto;html=1;entryX=1;entryY=0.75;entryDx=0;entryDy=0;fillColor=#f8cecc;strokeColor=#b85450;" edge="1" parent="1" source="O-KffDvgN3JifZ1gRdpQ-25" target="O-KffDvgN3JifZ1gRdpQ-18">
          <mxGeometry relative="1" as="geometry">
            <Array as="points">
              <mxPoint x="120" y="650" />
              <mxPoint x="120" y="678" />
            </Array>
          </mxGeometry>
        </mxCell>
        <mxCell id="O-KffDvgN3JifZ1gRdpQ-25" value="&#xa;" style="shape=waypoint;sketch=0;size=6;pointerEvents=1;points=[];fillColor=#f8cecc;resizable=0;rotatable=0;perimeter=centerPerimeter;snapToPoint=1;strokeColor=#b85450;" vertex="1" parent="1">
          <mxGeometry x="120" y="640" width="20" height="20" as="geometry" />
        </mxCell>
        <mxCell id="O-KffDvgN3JifZ1gRdpQ-30" value="" style="verticalLabelPosition=bottom;shadow=0;dashed=0;align=center;html=1;verticalAlign=top;shape=mxgraph.electrical.logic_gates.logic_gate;operation=and;fillColor=#f8cecc;strokeColor=#b85450;" vertex="1" parent="1">
          <mxGeometry x="-400" y="338" width="40" height="26" as="geometry" />
        </mxCell>
        <mxCell id="O-KffDvgN3JifZ1gRdpQ-31" value="" style="verticalLabelPosition=bottom;shadow=0;dashed=0;align=center;html=1;verticalAlign=top;shape=mxgraph.electrical.logic_gates.logic_gate;operation=and;fillColor=#f8cecc;strokeColor=#b85450;" vertex="1" parent="1">
          <mxGeometry x="-400" y="454" width="40" height="26" as="geometry" />
        </mxCell>
        <mxCell id="O-KffDvgN3JifZ1gRdpQ-32" style="edgeStyle=orthogonalEdgeStyle;rounded=0;orthogonalLoop=1;jettySize=auto;html=1;entryX=0;entryY=0.75;entryDx=0;entryDy=0;entryPerimeter=0;fillColor=#f8cecc;strokeColor=#b85450;" edge="1" parent="1" source="O-KffDvgN3JifZ1gRdpQ-18" target="O-KffDvgN3JifZ1gRdpQ-31">
          <mxGeometry relative="1" as="geometry">
            <Array as="points">
              <mxPoint x="-240" y="500" />
              <mxPoint x="-440" y="500" />
              <mxPoint x="-440" y="474" />
            </Array>
          </mxGeometry>
        </mxCell>
        <mxCell id="O-KffDvgN3JifZ1gRdpQ-33" style="edgeStyle=orthogonalEdgeStyle;rounded=0;orthogonalLoop=1;jettySize=auto;html=1;entryX=0;entryY=0.75;entryDx=0;entryDy=0;entryPerimeter=0;exitX=0.533;exitY=0.028;exitDx=0;exitDy=0;exitPerimeter=0;fillColor=#f8cecc;strokeColor=#b85450;" edge="1" parent="1" source="O-KffDvgN3JifZ1gRdpQ-40" target="O-KffDvgN3JifZ1gRdpQ-30">
          <mxGeometry relative="1" as="geometry">
            <Array as="points">
              <mxPoint x="-440" y="464" />
              <mxPoint x="-440" y="358" />
            </Array>
          </mxGeometry>
        </mxCell>
        <mxCell id="O-KffDvgN3JifZ1gRdpQ-34" value="" style="shape=waypoint;sketch=0;size=6;pointerEvents=1;points=[];fillColor=#f8cecc;resizable=0;rotatable=0;perimeter=centerPerimeter;snapToPoint=1;strokeColor=#b85450;" vertex="1" parent="1">
          <mxGeometry x="-430" y="430" width="20" height="20" as="geometry" />
        </mxCell>
        <mxCell id="O-KffDvgN3JifZ1gRdpQ-40" value="" style="shape=waypoint;sketch=0;size=6;pointerEvents=1;points=[];fillColor=#f8cecc;resizable=0;rotatable=0;perimeter=centerPerimeter;snapToPoint=1;strokeColor=#b85450;" vertex="1" parent="1">
          <mxGeometry x="-450" y="463" width="20" height="20" as="geometry" />
        </mxCell>
        <mxCell id="O-KffDvgN3JifZ1gRdpQ-41" value="idx_valid_o" style="text;html=1;align=center;verticalAlign=middle;whiteSpace=wrap;rounded=0;" vertex="1" parent="1">
          <mxGeometry x="-270" y="550" width="60" height="30" as="geometry" />
        </mxCell>
        <mxCell id="O-KffDvgN3JifZ1gRdpQ-47" style="edgeStyle=orthogonalEdgeStyle;rounded=0;orthogonalLoop=1;jettySize=auto;html=1;entryX=0.75;entryY=1;entryDx=0;entryDy=0;" edge="1" parent="1" source="09FnoaacUL5NaG-trUYr-23" target="09FnoaacUL5NaG-trUYr-19">
          <mxGeometry relative="1" as="geometry">
            <mxPoint x="480" y="120" as="targetPoint" />
            <Array as="points">
              <mxPoint x="430" y="130" />
              <mxPoint x="470" y="130" />
              <mxPoint x="470" y="131" />
              <mxPoint x="510" y="131" />
            </Array>
          </mxGeometry>
        </mxCell>
        <mxCell id="O-KffDvgN3JifZ1gRdpQ-69" value="" style="edgeStyle=orthogonalEdgeStyle;rounded=0;orthogonalLoop=1;jettySize=auto;html=1;" edge="1" parent="1" source="O-KffDvgN3JifZ1gRdpQ-48" target="09FnoaacUL5NaG-trUYr-30">
          <mxGeometry relative="1" as="geometry" />
        </mxCell>
        <mxCell id="O-KffDvgN3JifZ1gRdpQ-48" value="1&lt;div&gt;&lt;br&gt;&lt;/div&gt;&lt;div&gt;0&lt;/div&gt;" style="shape=trapezoid;perimeter=trapezoidPerimeter;whiteSpace=wrap;html=1;fixedSize=1;direction=south;spacingRight=12;" vertex="1" parent="1">
          <mxGeometry x="640" y="112.5" width="30" height="75" as="geometry" />
        </mxCell>
        <mxCell id="O-KffDvgN3JifZ1gRdpQ-67" style="edgeStyle=orthogonalEdgeStyle;rounded=0;orthogonalLoop=1;jettySize=auto;html=1;entryX=0.25;entryY=1;entryDx=0;entryDy=0;exitX=0.5;exitY=0;exitDx=0;exitDy=0;" edge="1" parent="1" source="O-KffDvgN3JifZ1gRdpQ-56">
          <mxGeometry relative="1" as="geometry">
            <mxPoint x="510" y="96.87" as="targetPoint" />
            <mxPoint x="940.0344827586209" y="183.1314942528736" as="sourcePoint" />
            <Array as="points">
              <mxPoint x="1020" y="230" />
              <mxPoint x="1020" y="60" />
              <mxPoint x="490" y="60" />
              <mxPoint x="490" y="97" />
            </Array>
          </mxGeometry>
        </mxCell>
        <mxCell id="O-KffDvgN3JifZ1gRdpQ-56" value="" style="shape=trapezoid;perimeter=trapezoidPerimeter;whiteSpace=wrap;html=1;fixedSize=1;direction=south;fillColor=#008a00;fontColor=#ffffff;strokeColor=#005700;" vertex="1" parent="1">
          <mxGeometry x="910" y="170" width="60" height="120" as="geometry" />
        </mxCell>
        <mxCell id="O-KffDvgN3JifZ1gRdpQ-62" style="edgeStyle=orthogonalEdgeStyle;rounded=0;orthogonalLoop=1;jettySize=auto;html=1;" edge="1" parent="1" source="O-KffDvgN3JifZ1gRdpQ-57" target="O-KffDvgN3JifZ1gRdpQ-56">
          <mxGeometry relative="1" as="geometry" />
        </mxCell>
        <mxCell id="O-KffDvgN3JifZ1gRdpQ-57" value="encoder" style="rounded=0;whiteSpace=wrap;html=1;fillColor=#008a00;strokeColor=#005700;fontColor=#ffffff;" vertex="1" parent="1">
          <mxGeometry x="750" y="320" width="100" height="170" as="geometry" />
        </mxCell>
        <mxCell id="O-KffDvgN3JifZ1gRdpQ-58" value="" style="shape=waypoint;sketch=0;size=6;pointerEvents=1;points=[];fillColor=none;resizable=0;rotatable=0;perimeter=centerPerimeter;snapToPoint=1;" vertex="1" parent="1">
          <mxGeometry x="650" y="350" width="20" height="20" as="geometry" />
        </mxCell>
        <mxCell id="O-KffDvgN3JifZ1gRdpQ-59" value="" style="shape=waypoint;sketch=0;size=6;pointerEvents=1;points=[];fillColor=none;resizable=0;rotatable=0;perimeter=centerPerimeter;snapToPoint=1;" vertex="1" parent="1">
          <mxGeometry x="640" y="440" width="20" height="20" as="geometry" />
        </mxCell>
        <mxCell id="O-KffDvgN3JifZ1gRdpQ-60" style="edgeStyle=orthogonalEdgeStyle;rounded=0;orthogonalLoop=1;jettySize=auto;html=1;entryX=-0.02;entryY=0.235;entryDx=0;entryDy=0;entryPerimeter=0;" edge="1" parent="1" source="O-KffDvgN3JifZ1gRdpQ-58" target="O-KffDvgN3JifZ1gRdpQ-57">
          <mxGeometry relative="1" as="geometry" />
        </mxCell>
        <mxCell id="O-KffDvgN3JifZ1gRdpQ-61" style="edgeStyle=orthogonalEdgeStyle;rounded=0;orthogonalLoop=1;jettySize=auto;html=1;entryX=0.008;entryY=0.767;entryDx=0;entryDy=0;entryPerimeter=0;" edge="1" parent="1" source="O-KffDvgN3JifZ1gRdpQ-59" target="O-KffDvgN3JifZ1gRdpQ-57">
          <mxGeometry relative="1" as="geometry" />
        </mxCell>
        <mxCell id="O-KffDvgN3JifZ1gRdpQ-65" style="edgeStyle=orthogonalEdgeStyle;rounded=0;orthogonalLoop=1;jettySize=auto;html=1;entryX=0.25;entryY=1;entryDx=0;entryDy=0;" edge="1" parent="1" source="O-KffDvgN3JifZ1gRdpQ-63" target="O-KffDvgN3JifZ1gRdpQ-56">
          <mxGeometry relative="1" as="geometry">
            <Array as="points">
              <mxPoint x="700" y="200" />
            </Array>
          </mxGeometry>
        </mxCell>
        <mxCell id="O-KffDvgN3JifZ1gRdpQ-63" value="" style="shape=waypoint;sketch=0;size=6;pointerEvents=1;points=[];fillColor=none;resizable=0;rotatable=0;perimeter=centerPerimeter;snapToPoint=1;" vertex="1" parent="1">
          <mxGeometry x="690" y="440" width="20" height="20" as="geometry" />
        </mxCell>
        <mxCell id="O-KffDvgN3JifZ1gRdpQ-66" style="edgeStyle=orthogonalEdgeStyle;rounded=0;orthogonalLoop=1;jettySize=auto;html=1;entryX=0.75;entryY=1;entryDx=0;entryDy=0;" edge="1" parent="1" source="O-KffDvgN3JifZ1gRdpQ-64" target="O-KffDvgN3JifZ1gRdpQ-56">
          <mxGeometry relative="1" as="geometry">
            <Array as="points">
              <mxPoint x="710" y="260" />
            </Array>
          </mxGeometry>
        </mxCell>
        <mxCell id="O-KffDvgN3JifZ1gRdpQ-64" value="" style="shape=waypoint;sketch=0;size=6;pointerEvents=1;points=[];fillColor=none;resizable=0;rotatable=0;perimeter=centerPerimeter;snapToPoint=1;" vertex="1" parent="1">
          <mxGeometry x="700" y="350" width="20" height="20" as="geometry" />
        </mxCell>
      </root>
    </mxGraphModel>
  </diagram>
</mxfile>
